<svg width="30" height="30" viewBox="0 0 30 30" fill="none" xmlns="http://www.w3.org/2000/svg">
<path d="M24.4557 7.37793H29.4134C29.737 7.37793 29.9994 7.11561 29.9994 6.79199C29.9994 6.46838 29.737 6.20605 29.4134 6.20605H24.4557C24.1321 6.20605 23.8698 6.46838 23.8698 6.79199C23.8698 7.11561 24.1321 7.37793 24.4557 7.37793Z"/>
<path d="M29.4138 11.5068H26.6816C26.3581 11.5068 26.0957 11.7692 26.0957 12.0928C26.0957 12.4164 26.3581 12.6787 26.6816 12.6787H29.4138C29.7373 12.6787 29.9997 12.4164 29.9997 12.0928C29.9997 11.7692 29.7373 11.5068 29.4138 11.5068Z"/>
<path d="M29.4141 8.85664H24.4563C24.296 8.85664 24.1426 8.92238 24.0321 9.03845L20.7408 12.4936C20.4475 12.368 20.1464 12.2663 19.8404 12.1881V6.35375C19.8404 6.15113 19.7302 5.9563 19.5567 5.85183L10.2224 0.230464C10.0365 0.118491 9.80379 0.118491 9.61787 0.230464L0.283652 5.85177C0.110156 5.95625 0 6.15113 0 6.35375V9.21839C0 9.54201 0.262324 9.80433 0.585938 9.80433C0.909551 9.80433 1.17188 9.54201 1.17188 9.21839V7.39062L9.33422 12.3062V21.9284L1.17188 17.0112V14.4794C1.17188 14.1557 0.909551 13.8934 0.585938 13.8934C0.262324 13.8934 0 14.1557 0 14.4794V17.3424C0 17.5478 0.107578 17.7382 0.283594 17.8443L9.61781 23.4673C9.80139 23.5777 10.0389 23.578 10.2225 23.4673L13.2232 21.66C13.4343 21.9649 13.6742 22.2533 13.9421 22.5212C15.1075 23.6864 16.6566 24.3281 18.3041 24.3281C19.7548 24.3281 21.1287 23.8303 22.2312 22.916L23.6459 24.3304L22.9491 25.027C22.7203 25.2558 22.7203 25.6268 22.949 25.8556L26.3163 29.2241C26.7374 29.6441 27.2902 29.854 27.8428 29.854C28.3954 29.854 28.9477 29.644 29.3677 29.2241C29.7751 28.8178 29.9995 28.2756 29.9995 27.6974C29.9995 27.1192 29.7751 26.577 29.3684 26.1713L26.0017 22.8035C25.8919 22.6936 25.7428 22.6318 25.5874 22.6318H25.5874C25.432 22.6318 25.283 22.6935 25.1731 22.8034L24.4746 23.5019L23.0599 22.0873C23.9743 20.9841 24.4721 19.61 24.4721 18.1594C24.4721 16.5119 23.8304 14.9629 22.6649 13.7976C22.3949 13.5276 22.1056 13.2881 21.8017 13.0788L24.7074 10.0285H29.4141C29.7376 10.0285 30 9.76619 30 9.44257C30 9.11896 29.7376 8.85664 29.4141 8.85664ZM28.5403 27.0005C28.7256 27.1853 28.8277 27.4328 28.8277 27.6974C28.8277 27.962 28.7256 28.2095 28.5397 28.3948C28.1555 28.779 27.5293 28.7787 27.1445 28.395L26.1439 27.3941L27.5392 25.999L28.5403 27.0005ZM25.5872 24.0464L26.7107 25.1702L25.3154 26.5653L24.1921 25.4415L25.5872 24.0464ZM9.92016 1.4164L18.1187 6.35375L9.92016 11.2911L1.72172 6.35375L9.92016 1.4164ZM12.651 20.6366L10.5061 21.9284V12.3062L18.6684 7.39056V12.0059C16.97 11.9064 15.2377 12.5032 13.9423 13.7974C13.9422 13.7975 13.9421 13.7976 13.9421 13.7976C12.7767 14.9628 12.1349 16.5119 12.1349 18.1593C12.1349 19.0263 12.3128 19.8658 12.651 20.6366ZM21.8364 14.6263C22.7804 15.5702 23.3002 16.8249 23.3002 18.1594C23.3002 19.4938 22.7804 20.7485 21.8362 21.6926C20.8929 22.6364 19.6386 23.1562 18.3042 23.1562C16.9697 23.1562 15.7148 22.6364 14.7707 21.6925C13.8267 20.7486 13.3068 19.4939 13.3068 18.1594C13.3068 16.8251 13.8267 15.5704 14.7706 14.6265C16.1463 13.252 18.13 12.8492 19.8629 13.4152L15.9801 17.4912C15.7569 17.7256 15.7659 18.0965 16.0002 18.3196C16.1137 18.4277 16.2591 18.4813 16.4043 18.4813C16.559 18.4813 16.7135 18.4204 16.8286 18.2995L20.98 13.9415C21.2837 14.1342 21.5716 14.3616 21.8364 14.6263Z"/>
<path d="M0.585938 12.4354C0.909551 12.4354 1.17188 12.1722 1.17188 11.8486C1.17188 11.525 0.909551 11.2627 0.585938 11.2627C0.262324 11.2627 0 11.525 0 11.8486V11.8503C0 12.1739 0.262324 12.4354 0.585938 12.4354Z"/>
</svg>
