<svg width="30" height="30" viewBox="0 0 30 30" fill="none" xmlns="http://www.w3.org/2000/svg">
<path d="M25.1887 5.39822C25.0347 5.39822 24.8835 5.33554 24.7746 5.22658C24.6656 5.11761 24.6029 4.96647 24.6029 4.81239C24.6029 4.65832 24.6656 4.50718 24.7746 4.39821C24.8835 4.28931 25.0347 4.22656 25.1887 4.22656C25.3428 4.22656 25.494 4.28925 25.6029 4.39821C25.7119 4.50718 25.7746 4.65832 25.7746 4.81239C25.7746 4.96705 25.7119 5.11761 25.6029 5.22658C25.494 5.33554 25.3428 5.39822 25.1887 5.39822Z"/>
<path d="M14.9996 29.9999C11.889 30 8.84922 29.0359 6.31643 27.2347L2.4455 28.272C2.24327 28.3261 2.02762 28.2683 1.87958 28.1203C1.7316 27.9724 1.67378 27.7566 1.72797 27.5545L2.76518 23.6835C0.761759 20.8663 -0.206034 17.4213 0.0366762 13.95C0.288642 10.3472 1.83547 6.95496 4.39227 4.3981C9.51033 -0.719892 17.5441 -1.45845 23.4948 2.64208C23.7611 2.82567 23.8283 3.19041 23.6447 3.45685C23.4612 3.7234 23.0963 3.79048 22.8299 3.60688C17.3448 -0.172901 9.93915 0.508303 5.22087 5.22659C0.416353 10.0311 -0.162624 17.7652 3.87416 23.2168C3.98043 23.3603 4.01546 23.5446 3.96924 23.7171L3.12237 26.8776L6.28287 26.0307C6.45533 25.9846 6.63958 26.0195 6.78311 26.1258C12.2349 30.1626 19.969 29.5836 24.7734 24.7791C29.4918 20.0608 30.1729 12.6549 26.3929 7.16973C26.2093 6.90329 26.2765 6.5385 26.5429 6.3549C26.8093 6.17136 27.1741 6.23849 27.3577 6.50487C31.4585 12.4556 30.7201 20.4895 25.6019 25.6077C23.0451 28.1645 19.6529 29.7113 16.0501 29.9633C15.6996 29.9877 15.3489 29.9999 14.9996 29.9999Z"/>
<path d="M14.9008 19.5947C13.8803 19.5947 13.0539 18.7684 13.0539 17.7527C13.0539 15.8207 14.1358 14.076 15.8774 13.1995C16.6471 12.8122 17.1188 12.0044 17.0791 11.1417C17.0314 10.1033 16.0422 9.11419 15.0038 9.06638C14.3997 9.03897 13.8264 9.25203 13.3909 9.66791C13.1312 9.91596 12.9425 10.2103 12.8298 10.5428C12.5741 11.2979 11.8762 11.8105 11.0932 11.8182V11.8183C11.087 11.8183 11.0809 11.8183 11.0747 11.8183C10.4866 11.8183 9.92919 11.536 9.58057 11.0604C9.22778 10.5792 9.13106 9.97975 9.31518 9.41571C9.61197 8.50656 10.1403 7.67134 10.843 7.00016C12.0142 5.88169 13.5515 5.30716 15.1733 5.38139C16.5945 5.44671 17.9607 6.06611 19.0201 7.12547C20.0794 8.18482 20.6988 9.55092 20.7641 10.9723C20.8706 13.2864 19.6034 15.4541 17.5357 16.4948C17.0466 16.7409 16.7428 17.223 16.7428 17.7527C16.7429 18.7684 15.9166 19.5947 14.9008 19.5947ZM14.8968 7.89226C14.9503 7.89226 15.004 7.89349 15.0578 7.89601C16.7118 7.97205 18.1735 9.43376 18.2495 11.0879C18.3104 12.4116 17.5861 13.6513 16.4041 14.2461C15.0603 14.9224 14.2256 16.266 14.2256 17.7526C14.2256 18.1223 14.5263 18.423 14.8959 18.423C15.2704 18.423 15.5712 18.1222 15.5712 17.7526C15.5712 16.7774 16.1221 15.8944 17.0091 15.4481C18.6645 14.6149 19.679 12.8791 19.5938 11.026C19.5419 9.89721 19.0439 8.80616 18.1916 7.95395C17.3392 7.10168 16.2483 6.60373 15.1195 6.55176C13.8212 6.49283 12.5897 6.95218 11.6523 7.84744C11.081 8.39309 10.6694 9.04307 10.4291 9.77934C10.3635 9.98016 10.3987 10.1946 10.5255 10.3676C10.6557 10.5452 10.8554 10.6467 11.0743 10.6467C11.0767 10.6467 11.0787 10.6454 11.0815 10.6466C11.3672 10.6438 11.6239 10.451 11.7201 10.1669C11.8915 9.66077 12.1894 9.19527 12.5816 8.82069C13.2121 8.21857 14.029 7.89226 14.8968 7.89226Z"/>
<path d="M14.8988 24.6294C13.8817 24.6294 13.0543 23.8019 13.0543 22.7849C13.0543 21.7679 13.8817 20.9404 14.8988 20.9404C15.9159 20.9404 16.7433 21.7679 16.7433 22.7849C16.7433 23.8019 15.9159 24.6294 14.8988 24.6294ZM14.8988 22.1121C14.5278 22.1121 14.226 22.4139 14.226 22.7849C14.226 23.1559 14.5278 23.4577 14.8988 23.4577C15.2698 23.4577 15.5716 23.1559 15.5716 22.7849C15.5716 22.4139 15.2698 22.1121 14.8988 22.1121Z"/>
</svg>
