<svg width="25" height="18" viewBox="0 0 25 18" fill="none" xmlns="http://www.w3.org/2000/svg">
<path d="M7.76471 0.5H7.26471V1V3.66667V4.16667H7.76471H24H24.5V3.66667V1V0.5H24H7.76471ZM1 7.16667H0.5V7.66667V10.3333V10.8333H1H3.70588H4.20588V10.3333V7.66667V7.16667H3.70588H1ZM1 0.5H0.5V1V3.66667V4.16667H1H3.70588H4.20588V3.66667V1V0.5H3.70588H1ZM1 13.8333H0.5V14.3333V17V17.5H1H3.70588H4.20588V17V14.3333V13.8333H3.70588H1ZM7.76471 7.16667H7.26471V7.66667V10.3333V10.8333H7.76471H24H24.5V10.3333V7.66667V7.16667H24H7.76471ZM7.76471 13.8333H7.26471V14.3333V17V17.5H7.76471H24H24.5V17V14.3333V13.8333H24H7.76471Z"/>
</svg>
