<svg width="19" height="19" viewBox="0 0 19 19" fill="none" xmlns="http://www.w3.org/2000/svg">
<path d="M3.69867 4.11732L3.43488 2.53398H2.48805C2.34682 1.98932 1.85535 1.58398 1.26667 1.58398C0.5681 1.58398 0 2.15208 0 2.85065C0 3.54922 0.5681 4.11732 1.26667 4.11732C1.85535 4.11732 2.34682 3.71198 2.48837 3.16732H2.89813L3.05647 4.11732H3.04443L4.68192 12.3557C3.90133 12.4153 3.25122 13.0163 3.17458 13.7725C3.12962 14.2174 3.27592 14.663 3.57612 14.9942C3.87663 15.3264 4.30477 15.5173 4.75 15.5173H5.38333C5.38333 16.5652 6.23548 17.4173 7.28333 17.4173C8.33118 17.4173 9.18333 16.5652 9.18333 15.5173H12.6667C12.6667 16.5652 13.5188 17.4173 14.5667 17.4173C15.6145 17.4173 16.4667 16.5652 16.4667 15.5173H17.7333C17.9084 15.5173 18.05 15.3758 18.05 15.2007C18.05 15.0255 17.9084 14.884 17.7333 14.884H16.3558C16.0943 14.1471 15.3922 13.6173 14.5667 13.6173C13.7411 13.6173 13.0391 14.1471 12.7775 14.884H9.0725C8.81093 14.1471 8.10888 13.6173 7.28333 13.6173C6.45778 13.6173 5.75573 14.1471 5.49417 14.884H4.75C4.48337 14.884 4.22687 14.7694 4.04573 14.5695C3.86302 14.3672 3.7772 14.1069 3.80475 13.8361C3.85288 13.3583 4.29432 12.9843 4.80953 12.9843H5.06002C5.06445 12.9843 5.06793 12.9843 5.07237 12.9843H17.4205C18.2916 12.984 19 12.2756 19 11.4048V4.11732H3.69867ZM1.26667 3.48398C0.917383 3.48398 0.633333 3.19993 0.633333 2.85065C0.633333 2.50137 0.917383 2.21732 1.26667 2.21732C1.61595 2.21732 1.9 2.50137 1.9 2.85065C1.9 3.19993 1.61595 3.48398 1.26667 3.48398ZM14.5667 14.2507C15.2652 14.2507 15.8333 14.8188 15.8333 15.5173C15.8333 16.2159 15.2652 16.784 14.5667 16.784C13.8681 16.784 13.3 16.2159 13.3 15.5173C13.3 14.8188 13.8681 14.2507 14.5667 14.2507ZM7.28333 14.2507C7.9819 14.2507 8.55 14.8188 8.55 15.5173C8.55 16.2159 7.9819 16.784 7.28333 16.784C6.58477 16.784 6.01667 16.2159 6.01667 15.5173C6.01667 14.8188 6.58477 14.2507 7.28333 14.2507ZM18.3667 11.4048C18.3667 11.9263 17.9423 12.3507 17.4208 12.3507H5.32665L3.81615 4.75065H18.3667V11.4048Z" fill="#666666"/>
</svg>
