<svg width="32" height="32" viewBox="0 0 32 32" fill="none" xmlns="http://www.w3.org/2000/svg">
<path d="M15.9986 0.251465C12.284 0.251465 9.24862 3.28026 9.2486 6.99482H3.65876C2.72335 6.99482 1.86326 7.35917 1.20002 7.97477C0.536773 8.59041 0.0689418 9.60189 0.329897 10.6489L4.81232 28.6445C4.99409 29.3737 5.29551 30.1033 5.83405 30.7056C6.37259 31.3079 7.21675 31.7514 8.15217 31.7514H23.856C24.7914 31.7514 25.6268 31.3079 26.1654 30.7056C26.7039 30.1033 27.0053 29.3737 27.1871 28.6445L31.6695 10.6489C31.9304 9.60189 31.4692 8.59041 30.806 7.97477C30.1427 7.35912 29.276 6.99482 28.3406 6.99482H22.7508C22.7508 3.28026 19.7154 0.251465 16.0008 0.251465H15.9986ZM15.9986 2.50358C18.4972 2.50358 20.5008 4.49624 20.5008 6.99482H11.4986C11.4986 4.49624 13.5 2.50358 15.9986 2.50358ZM3.65876 9.24706H28.3406C28.648 9.24706 29.0471 9.4137 29.2701 9.62077C29.4931 9.82784 29.5259 9.93962 29.4854 10.1019L25.003 28.1063C24.8833 28.5864 24.6837 28.9824 24.4866 29.2028C24.2896 29.4231 24.1634 29.5018 23.856 29.5018H8.15217C7.84483 29.5018 7.7098 29.4231 7.51276 29.2028C7.31572 28.9826 7.11607 28.5864 6.9964 28.1063L2.51398 10.1019C2.47359 9.93949 2.50612 9.82771 2.72931 9.62077C2.95237 9.4137 3.35142 9.24706 3.65876 9.24706Z"/>
</svg>
