<svg width="31" height="32" viewBox="0 0 31 32" fill="none" xmlns="http://www.w3.org/2000/svg">
<path d="M15.4985 0.251465C11.8871 0.251465 8.93603 3.28026 8.93602 6.99482H3.50145C2.59201 6.99482 1.75582 7.35917 1.111 7.97477C0.46618 8.59041 0.011344 9.60189 0.26505 10.6489L4.62297 28.6445C4.79968 29.3737 5.09273 30.1033 5.61631 30.7056C6.13989 31.3079 6.96061 31.7514 7.87004 31.7514H23.1377C24.0471 31.7514 24.8593 31.3079 25.3829 30.7056C25.9064 30.1033 26.1995 29.3737 26.3762 28.6445L30.7341 10.6489C30.9878 9.60189 30.5394 8.59041 29.8946 7.97477C29.2498 7.35912 28.4071 6.99482 27.4977 6.99482H22.0631C22.0631 3.28026 19.112 0.251465 15.5007 0.251465H15.4985ZM15.4985 2.50358C17.9277 2.50358 19.8756 4.49624 19.8756 6.99482H11.1235C11.1235 4.49624 13.0693 2.50358 15.4985 2.50358ZM3.50145 9.24706H27.4977C27.7965 9.24706 28.1845 9.4137 28.4013 9.62077C28.6182 9.82784 28.65 9.93962 28.6107 10.1019L24.2528 28.1063C24.1364 28.5864 23.9424 28.9824 23.7508 29.2028C23.5592 29.4231 23.4365 29.5018 23.1377 29.5018H7.87004C7.57123 29.5018 7.43995 29.4231 7.24839 29.2028C7.05682 28.9826 6.86272 28.5864 6.74637 28.1063L2.38847 10.1019C2.3492 9.93949 2.38082 9.82771 2.59781 9.62077C2.81468 9.4137 3.20264 9.24706 3.50145 9.24706Z" fill="white"/>
</svg>
