<svg width="48" height="48" viewBox="0 0 48 48" fill="none" xmlns="http://www.w3.org/2000/svg">
<path d="M46.7258 16.4743L31.5265 1.27521C30.706 0.454805 29.6119 0.00292969 28.4454 0.00292969C27.2791 0.00292969 26.1848 0.454617 25.3643 1.27502L1.27228 25.3672C0.451875 26.1877 0 27.2817 0 28.4482C0 29.6146 0.451875 30.7089 1.27228 31.5292L3.14653 33.4034C3.14672 33.4035 3.14681 33.4037 3.147 33.4039C3.14719 33.4041 3.14738 33.4043 3.14756 33.4045L15.7438 46.0007H13.9997C13.4475 46.0007 12.9998 46.4484 12.9998 47.0007C12.9998 47.5528 13.4475 48.0006 13.9997 48.0006H19.5487C19.55 48.0006 19.5512 48.0007 19.5525 48.0007C19.5538 48.0007 19.555 48.0006 19.5563 48.0006L33.9988 48.0008C34.551 48.0008 34.9988 47.553 34.9988 47.0008C34.9988 46.4486 34.551 46.0009 33.9988 46.0009L23.3616 46.0007L46.7259 22.6363C48.4247 20.9374 48.4247 18.1731 46.7258 16.4743ZM45.3117 21.2222L21.2195 45.3145C20.7776 45.7562 20.187 45.9998 19.5562 46.0007H19.5486C18.9179 45.9997 18.3275 45.7562 17.8858 45.3145L5.26828 32.6968L28.4053 9.55962C28.7958 9.16915 28.7958 8.53596 28.4053 8.14549C28.0148 7.75502 27.3818 7.75502 26.9911 8.14559L3.85406 31.2828L2.68631 30.1151C2.24372 29.6725 1.99997 29.0805 1.99997 28.4483C1.99997 27.816 2.24372 27.224 2.68641 26.7813L26.7785 2.68924C27.2212 2.24665 27.8132 2.0029 28.4454 2.0029C29.0777 2.0029 29.6697 2.24665 30.1124 2.68934L35.5221 8.0989L12.3848 31.2364C11.9943 31.6268 11.9943 32.26 12.3848 32.6506C12.58 32.8458 12.836 32.9434 13.0918 32.9434C13.3477 32.9434 13.6036 32.8457 13.7989 32.6505L36.9362 9.51312L45.3117 17.8884C46.2308 18.8075 46.2307 20.3031 45.3117 21.2222Z"/>
<path d="M24.6379 28.8807C24.2474 28.4902 23.6144 28.4903 23.2237 28.8807L15.3549 36.7494C14.9644 37.1399 14.9644 37.773 15.3549 38.1636C15.5501 38.3589 15.8061 38.4565 16.0619 38.4565C16.3178 38.4565 16.5737 38.3588 16.769 38.1636L24.6378 30.2949C25.0284 29.9043 25.0284 29.2712 24.6379 28.8807Z"/>
<path d="M21.4108 36.3505L18.1834 39.5779C17.7929 39.9683 17.7929 40.6015 18.1834 40.9921C18.3787 41.1873 18.6346 41.285 18.8905 41.285C19.1465 41.285 19.4023 41.1873 19.5975 40.9921L22.8249 37.7648C23.2154 37.3743 23.2154 36.7411 22.8249 36.3505C22.4344 35.96 21.8015 35.96 21.4108 36.3505Z"/>
<path d="M24.3806 33.3807L23.9564 33.8048C23.5658 34.1953 23.5658 34.8284 23.9563 35.219C24.1514 35.4143 24.4075 35.512 24.6633 35.512C24.9192 35.512 25.1751 35.4143 25.3703 35.219L25.7945 34.7949C26.1851 34.4044 26.1851 33.7713 25.7946 33.3808C25.4043 32.9903 24.771 32.9902 24.3806 33.3807Z"/>
<path d="M38.1636 15.3554C37.9761 15.1679 37.7217 15.0625 37.4565 15.0625C37.1913 15.0625 36.937 15.1679 36.7494 15.3554L32.5068 19.5979C32.3193 19.7855 32.2139 20.0398 32.2139 20.305C32.2139 20.5702 32.3193 20.8246 32.5068 21.0121L35.3352 23.8402C35.5305 24.0355 35.7864 24.1331 36.0423 24.1331C36.2983 24.1331 36.5541 24.0354 36.7493 23.8402L40.9918 19.5978C41.3823 19.2074 41.3823 18.5742 40.9918 18.1837L38.1636 15.3554ZM36.0422 21.7191L34.628 20.305L37.4564 17.4767L38.8705 18.8909L36.0422 21.7191Z"/>
<path d="M30.0313 7.51708C30.2873 7.51708 30.5432 7.41939 30.7384 7.22402L31.1626 6.79961C31.553 6.40905 31.5529 5.77586 31.1624 5.38548C30.7719 4.99511 30.1386 4.9952 29.7482 5.38577L29.324 5.81017C28.9336 6.20074 28.9337 6.83392 29.3243 7.2243C29.5196 7.41958 29.7753 7.51708 30.0313 7.51708Z"/>
<path d="M10.0501 33.5673L9.62586 33.9916C9.23539 34.3819 9.23539 35.0151 9.62586 35.4058C9.82114 35.601 10.0771 35.6985 10.3329 35.6985C10.5888 35.6985 10.8447 35.601 11.04 35.4058L11.4642 34.9815C11.8547 34.591 11.8547 33.9578 11.4642 33.5673C11.0736 33.1768 10.4406 33.1768 10.0501 33.5673Z"/>
</svg>
