<svg width="64" height="64" viewBox="0 0 64 64" fill="none" xmlns="http://www.w3.org/2000/svg">
<g clip-path="url(#clip0)">
<path d="M54.7867 15.0481L22.0087 20.0215C20.6124 20.2334 19.6489 21.5418 19.8608 22.9379L23.0019 43.6398C23.2138 45.0361 24.5221 45.9996 25.9183 45.7878L58.6963 40.8143C60.0926 40.6024 61.0561 39.2941 60.8442 37.8979L57.7031 17.1962C57.4912 15.7998 56.1829 14.8362 54.7867 15.0481ZM22.2536 21.6356L55.0316 16.6621C55.4163 16.6038 55.7821 16.7918 55.9695 17.1075L43.4757 30.2156C41.8738 31.8964 39.3381 32.2811 37.3096 31.1512L21.4901 22.3392C21.5754 21.9823 21.8689 21.694 22.2536 21.6356ZM58.9805 36.4973L48.8676 30.8642C48.4738 30.6448 47.9766 30.7862 47.7572 31.18C47.5378 31.5738 47.6793 32.071 48.0731 32.2904L59.2148 38.4967C59.1295 38.8538 58.8361 39.1419 58.4514 39.2003L25.6734 44.1738C25.2887 44.2321 24.9229 44.0442 24.7355 43.7285L33.5348 34.4964C33.8458 34.1701 33.8334 33.6534 33.5071 33.3424C33.1807 33.0314 32.6641 33.0437 32.353 33.3701L24.3662 41.7495L21.7244 24.3386L36.5151 32.5775C37.8544 33.3235 39.3612 33.5696 40.7975 33.3516C42.2338 33.1337 43.5997 32.4518 44.6574 31.342L56.3387 19.0865L58.9805 36.4973Z" fill="#D9D9D9"/>
<path d="M19.0583 35.4705L8.70731 37.0411C8.26161 37.1087 7.9551 37.5249 8.02272 37.9706C8.09035 38.4163 8.50652 38.7228 8.95222 38.6552L19.3032 37.0846C19.7489 37.017 20.0554 36.6008 19.9878 36.1551C19.9202 35.7094 19.504 35.4029 19.0583 35.4705Z" fill="#0776FA"/>
<path d="M19.7126 39.7837L5.91141 41.8778C5.46571 41.9454 5.1592 42.3616 5.22682 42.8073C5.29445 43.253 5.71062 43.5595 6.15632 43.4919L19.9576 41.3978C20.4033 41.3301 20.7098 40.914 20.6421 40.4683C20.5745 40.0226 20.1583 39.7161 19.7126 39.7837Z" fill="#0776FA"/>
<path d="M18.4039 31.1579L11.5033 32.2049C11.0576 32.2726 10.7511 32.6887 10.8187 33.1344C10.8863 33.5801 11.3025 33.8866 11.7482 33.819L18.6488 32.772C19.0945 32.7043 19.401 32.2882 19.3334 31.8425C19.2657 31.3967 18.8496 31.0903 18.4039 31.1579Z" fill="#0776FA"/>
<path d="M17.7494 26.845L14.299 27.3685C13.8533 27.4361 13.5468 27.8523 13.6145 28.298C13.6821 28.7437 14.0983 29.0502 14.544 28.9826L17.9943 28.4591C18.44 28.3914 18.7465 27.9753 18.6789 27.5296C18.6113 27.0839 18.1951 26.7774 17.7494 26.845Z" fill="#0776FA"/>
</g>
<defs>
<clipPath id="clip0">
<rect width="55.7245" height="55.7245" fill="white" transform="translate(0 8.35962) rotate(-8.62784)"/>
</clipPath>
</defs>
</svg>
