<svg viewBox="0 0 24 24" fill="none" xmlns="http://www.w3.org/2000/svg">
<path d="M23.6485 11.5606C23.5957 11.4945 22.3301 9.92405 20.2785 8.33817C19.0669 7.40156 17.8302 6.65372 16.6028 6.1155C15.0447 5.43225 13.496 5.08585 12 5.08585C10.5039 5.08585 8.95538 5.4323 7.3972 6.1155C6.16978 6.65367 4.93308 7.40152 3.72141 8.33817C1.66992 9.9241 0.404344 11.4946 0.351469 11.5607L0 12L0.351516 12.4393C0.404391 12.5054 1.66992 14.0759 3.72145 15.6617C4.93308 16.5983 6.16978 17.3462 7.39725 17.8844C8.95537 18.5677 10.504 18.9141 12 18.9141C13.4961 18.9141 15.0447 18.5676 16.6028 17.8844C17.8303 17.3462 19.067 16.5984 20.2786 15.6617C22.3301 14.0758 23.5957 12.5053 23.6486 12.4393L24 12L23.6485 11.5606ZM19.3922 14.5693C17.6522 15.9098 14.9572 17.5077 12 17.5077C9.04266 17.5077 6.34777 15.9098 4.60777 14.5693C3.31027 13.5697 2.33334 12.5585 1.83014 12.0002C3.07219 10.6245 7.20309 6.49228 12 6.49228C14.9573 6.49228 17.6523 8.0902 19.3923 9.43074C20.6899 10.4304 21.6669 11.4417 22.1701 12C21.6668 12.5583 20.6899 13.5696 19.3922 14.5693Z"/>
<path d="M12 7.26501C9.38911 7.26501 7.26501 9.38915 7.26501 12C7.26501 14.6107 9.38916 16.7349 12 16.7349C14.6107 16.7349 16.7349 14.6108 16.7349 12C16.7349 9.38911 14.6108 7.26501 12 7.26501ZM12 15.3285C10.1646 15.3285 8.67141 13.8353 8.67141 12C8.67141 10.1646 10.1646 8.6714 12 8.6714C13.8353 8.6714 15.3285 10.1646 15.3285 12C15.3285 13.8353 13.8353 15.3285 12 15.3285Z"/>
<path d="M12 9.82785C10.8023 9.82785 9.82788 10.8023 9.82788 12C9.82788 13.1977 10.8023 14.1722 12 14.1722C13.1977 14.1722 14.1722 13.1977 14.1722 12C14.1722 10.8022 13.1978 9.82785 12 9.82785ZM12 12.7657C11.5778 12.7657 11.2343 12.4222 11.2343 12C11.2343 11.5777 11.5778 11.2343 12 11.2343C12.4222 11.2343 12.7657 11.5778 12.7657 12C12.7658 12.4222 12.4223 12.7657 12 12.7657Z"/>
</svg>
