<svg width="30" height="30" viewBox="0 0 30 30" fill="none" xmlns="http://www.w3.org/2000/svg">
<path d="M0 4.15137V18.921C0 19.1799 0.209883 19.3898 0.46875 19.3898C0.727617 19.3898 0.9375 19.1799 0.9375 18.921V4.15137C0.9375 3.44057 1.51576 2.8623 2.22656 2.8623H27.7734C28.4842 2.8623 29.0625 3.44057 29.0625 4.15137V20.0889C29.0625 20.7997 28.4842 21.3779 27.7734 21.3779H25.3314C25.0781 21.3779 24.8705 21.5793 24.8629 21.8325L24.7245 26.41L23.8555 25.4278C23.684 25.2339 23.3878 25.2156 23.1939 25.3874C23 25.5589 22.9818 25.8551 23.1534 26.049L24.8062 27.9172C24.8968 28.0197 25.0256 28.0754 25.1573 28.0754C25.2107 28.0754 25.2646 28.0663 25.3167 28.0474C25.4974 27.982 25.6199 27.8129 25.6257 27.6208L25.7862 22.3154H27.7734C29.0012 22.3154 30 21.3166 30 20.0889V4.15137C30 2.92365 29.0012 1.9248 27.7734 1.9248H2.22656C0.998848 1.9248 0 2.92365 0 4.15137ZM23.7763 12.1201C23.7763 10.7855 22.6906 9.69979 21.356 9.69979C20.0214 9.69979 18.9357 10.7855 18.9357 12.1201C18.9357 13.4546 20.0214 14.5405 21.356 14.5405C22.6906 14.5405 23.7763 13.4547 23.7763 12.1201ZM22.8388 12.1201C22.8388 12.9377 22.1736 13.603 21.356 13.603C20.5384 13.603 19.8732 12.9377 19.8732 12.1201C19.8732 11.3024 20.5384 10.6373 21.356 10.6373C22.1736 10.6373 22.8388 11.3025 22.8388 12.1201ZM17.4203 12.1201C17.4203 10.7855 16.3346 9.69979 15 9.69979C13.6654 9.69979 12.5797 10.7855 12.5797 12.1201C12.5797 13.4546 13.6654 14.5405 15 14.5405C16.3345 14.5405 17.4203 13.4547 17.4203 12.1201ZM16.4828 12.1201C16.4828 12.9377 15.8176 13.603 15 13.603C14.1823 13.603 13.5172 12.9377 13.5172 12.1201C13.5172 11.3024 14.1824 10.6373 15 10.6373C15.8176 10.6373 16.4828 11.3025 16.4828 12.1201ZM11.0643 12.1201C11.0643 10.7855 9.97857 9.69979 8.64398 9.69979C7.30939 9.69979 6.22365 10.7855 6.22365 12.1201C6.22365 13.4546 7.30939 14.5405 8.64398 14.5405C9.97857 14.5405 11.0643 13.4547 11.0643 12.1201ZM10.1268 12.1201C10.1268 12.9377 9.4616 13.603 8.64398 13.603C7.82637 13.603 7.16115 12.9377 7.16115 12.1201C7.16115 11.3024 7.82637 10.6373 8.64398 10.6373C9.4616 10.6373 10.1268 11.3025 10.1268 12.1201ZM16.4207 20.1887C16.3629 20.3665 16.4163 20.5617 16.5566 20.6853L18.0775 22.0252L17.6347 24.0031C17.5938 24.1856 17.6653 24.3749 17.8165 24.4847C17.8983 24.5442 17.9951 24.5743 18.0921 24.5743C18.1744 24.5743 18.2569 24.5527 18.3308 24.5089L20.0751 23.4766L21.8194 24.5089C21.9803 24.6042 22.1825 24.5947 22.3337 24.4847C22.4849 24.3749 22.5564 24.1856 22.5155 24.0031L22.0727 22.0252L23.5936 20.6853C23.7339 20.5617 23.7873 20.3665 23.7295 20.1887C23.6718 20.0109 23.5138 19.8844 23.3277 19.8669L21.3097 19.6768L20.5054 17.8164C20.4311 17.6447 20.2621 17.5337 20.0751 17.5337C19.8881 17.5337 19.719 17.6447 19.6448 17.8164L18.8405 19.6768L16.8226 19.8669C16.6363 19.8844 16.4784 20.0109 16.4207 20.1887ZM17.9899 20.6985L19.2046 20.5842C19.3749 20.5681 19.523 20.4605 19.5909 20.3035L20.075 19.1836L20.5593 20.3035C20.6272 20.4605 20.7752 20.5681 20.9456 20.5842L22.1603 20.6985L21.2447 21.5051C21.1164 21.6183 21.0598 21.7923 21.0972 21.9593L21.3638 23.1499L20.3138 22.5285C20.1665 22.4414 19.9835 22.4414 19.8363 22.5285L18.7863 23.1499L19.0528 21.9593C19.0902 21.7923 19.0337 21.6183 18.9053 21.5051L17.9899 20.6985ZM8.22182 20.1887C8.16404 20.3665 8.21748 20.5617 8.35775 20.6853L9.87861 22.0252L9.43582 24.0031C9.39498 24.1856 9.46646 24.3749 9.61769 24.4847C9.76898 24.5947 9.97108 24.6042 10.132 24.5089L11.8762 23.4766L13.6205 24.5089C13.6944 24.5527 13.7769 24.5743 13.8592 24.5743C13.9563 24.5743 14.0529 24.5442 14.1348 24.4847C14.2861 24.3749 14.3576 24.1856 14.3167 24.0031L13.8739 22.0252L15.3947 20.6853C15.535 20.5617 15.5885 20.3665 15.5307 20.1887C15.4729 20.0109 15.315 19.8844 15.1288 19.8669L13.1109 19.6768L12.3065 17.8164C12.2323 17.6447 12.0632 17.5337 11.8762 17.5337C11.6893 17.5337 11.5202 17.6447 11.446 17.8164L10.6416 19.6768L8.62371 19.8669C8.4375 19.8844 8.27959 20.0109 8.22182 20.1887ZM9.79102 20.6985L11.0057 20.5842C11.1761 20.5681 11.3241 20.4605 11.392 20.3035L11.8762 19.1836L12.3604 20.3035C12.4283 20.4605 12.5764 20.5681 12.7467 20.5842L13.9614 20.6985L13.0459 21.5051C12.9175 21.6183 12.861 21.7923 12.8984 21.9593L13.1649 23.1499L12.1149 22.5285C11.9677 22.4414 11.7847 22.4414 11.6374 22.5285L10.5875 23.1499L10.854 21.9593C10.8914 21.7923 10.8349 21.6183 10.7065 21.5051L9.79102 20.6985ZM0.0229683 20.1887C-0.0348053 20.3665 0.0186329 20.5617 0.158907 20.6853L1.67977 22.0252L1.23697 24.0031C1.19613 24.1856 1.26762 24.3749 1.41885 24.4847C1.50064 24.5442 1.59738 24.5743 1.69441 24.5743C1.77674 24.5743 1.85924 24.5527 1.93312 24.5089L3.6774 23.4766L5.42168 24.5089C5.58258 24.6042 5.78473 24.5948 5.93596 24.4847C6.08725 24.3749 6.15873 24.1856 6.11783 24.0031L5.67504 22.0252L7.1959 20.6853C7.33617 20.5617 7.38961 20.3665 7.33184 20.1887C7.27406 20.0109 7.11615 19.8844 6.93 19.8669L4.91209 19.6768L4.10772 17.8164C4.03348 17.6447 3.86443 17.5337 3.67746 17.5337C3.49049 17.5337 3.32139 17.6447 3.24721 17.8164L2.44283 19.6768L0.424864 19.8669C0.238653 19.8844 0.0806828 20.0109 0.0229683 20.1887ZM1.59211 20.6985L2.80682 20.5842C2.97715 20.5681 3.12522 20.4605 3.19312 20.3035L3.67735 19.1836L4.1615 20.3035C4.22941 20.4605 4.37748 20.5681 4.54781 20.5842L5.76252 20.6985L4.84699 21.5051C4.71861 21.6183 4.66207 21.7923 4.69945 21.9593L4.966 23.1499L3.91606 22.5285C3.84246 22.4849 3.75984 22.4631 3.67729 22.4631C3.59473 22.4631 3.51217 22.4849 3.43851 22.5285L2.38852 23.1499L2.65506 21.9593C2.69244 21.7923 2.6359 21.6183 2.50752 21.5051L1.59211 20.6985Z" fill="#808080"/>
</svg>
