<svg width="34" height="34" viewBox="0 0 34 34" fill="none" xmlns="http://www.w3.org/2000/svg">
<path d="M27.8163 28.8786C28.0981 28.8786 28.3684 28.7667 28.5676 28.5674C28.7669 28.3681 28.8788 28.0979 28.8788 27.8161V24.5117C29.7394 24.281 30.4999 23.7727 31.0422 23.0658C31.5846 22.3588 31.8785 21.4927 31.8785 20.6017C31.8785 19.7107 31.5846 18.8446 31.0422 18.1377C30.4999 17.4307 29.7394 16.9225 28.8788 16.6917V6.18359C28.8788 5.9018 28.7669 5.63155 28.5676 5.43229C28.3684 5.23304 28.0981 5.12109 27.8163 5.12109C27.5345 5.12109 27.2643 5.23304 27.065 5.43229C26.8658 5.63155 26.7538 5.9018 26.7538 6.18359V16.7023C25.8932 16.9331 25.1328 17.4414 24.5905 18.1483C24.0481 18.8552 23.7542 19.7213 23.7542 20.6123C23.7542 21.5033 24.0481 22.3695 24.5905 23.0764C25.1328 23.7833 25.8932 24.2916 26.7538 24.5223V27.8267C26.7566 28.1067 26.8698 28.3742 27.0688 28.5712C27.2677 28.7681 27.5364 28.8786 27.8163 28.8786ZM25.872 20.6017C25.872 20.2172 25.986 19.8412 26.1997 19.5215C26.4133 19.2017 26.717 18.9525 27.0723 18.8054C27.4275 18.6582 27.8185 18.6197 28.1957 18.6947C28.5728 18.7697 28.9193 18.9549 29.1912 19.2268C29.4631 19.4988 29.6483 19.8452 29.7234 20.2224C29.7984 20.5996 29.7599 20.9905 29.6127 21.3458C29.4655 21.7011 29.2163 22.0048 28.8966 22.2184C28.5768 22.4321 28.2009 22.5461 27.8163 22.5461C27.3007 22.5461 26.8061 22.3412 26.4415 21.9766C26.0768 21.612 25.872 21.1174 25.872 20.6017Z" fill="white"/>
<path d="M17 28.8786C17.2818 28.8786 17.5521 28.7667 17.7514 28.5674C17.9506 28.3682 18.0625 28.0979 18.0625 27.8161V13.0899C19.0148 12.8323 19.841 12.2377 20.3876 11.4165C20.9342 10.5953 21.1639 9.60359 21.034 8.62574C20.9041 7.6479 20.4234 6.75053 19.6814 6.10056C18.9393 5.45059 17.9865 5.09229 17 5.09229C16.0136 5.09229 15.0608 5.45059 14.3187 6.10056C13.5767 6.75053 13.096 7.6479 12.9661 8.62574C12.8362 9.60359 13.0659 10.5953 13.6125 11.4165C14.1591 12.2377 14.9853 12.8323 15.9375 13.0899V27.8161C15.9375 28.0979 16.0495 28.3682 16.2487 28.5674C16.448 28.7667 16.7183 28.8786 17 28.8786ZM15.0557 9.1905C15.0536 8.8055 15.1658 8.42853 15.3782 8.10739C15.5905 7.78624 15.8935 7.53537 16.2486 7.38658C16.6037 7.23778 16.995 7.19776 17.3728 7.27158C17.7507 7.3454 18.0981 7.52974 18.3711 7.80124C18.6441 8.07274 18.8304 8.41917 18.9062 8.79663C18.9821 9.17409 18.9443 9.56558 18.7974 9.92148C18.6506 10.2774 18.4014 10.5817 18.0814 10.7958C17.7614 11.0099 17.3851 11.1242 17 11.1243C16.4862 11.1243 15.9932 10.9209 15.6289 10.5585C15.2646 10.1962 15.0585 9.70434 15.0557 9.1905Z" fill="white"/>
<path d="M5.12127 20.9098V27.8161C5.12127 28.0979 5.23321 28.3681 5.43247 28.5674C5.63173 28.7667 5.90198 28.8786 6.18377 28.8786C6.46556 28.8786 6.73582 28.7667 6.93507 28.5674C7.13433 28.3681 7.24627 28.0979 7.24627 27.8161V20.9098C8.10688 20.6791 8.86731 20.1708 9.40965 19.4639C9.952 18.757 10.246 17.8909 10.246 16.9998C10.246 16.1088 9.952 15.2427 9.40965 14.5358C8.86731 13.8289 8.10688 13.3206 7.24627 13.0898V6.18359C7.24627 5.9018 7.13433 5.63155 6.93507 5.43229C6.73582 5.23304 6.46556 5.12109 6.18377 5.12109C5.90198 5.12109 5.63173 5.23304 5.43247 5.43229C5.23321 5.63155 5.12127 5.9018 5.12127 6.18359V13.0898C4.26067 13.3206 3.50024 13.8289 2.95789 14.5358C2.41555 15.2427 2.12158 16.1088 2.12158 16.9998C2.12158 17.8909 2.41555 18.757 2.95789 19.4639C3.50024 20.1708 4.26067 20.6791 5.12127 20.9098ZM6.18377 15.0555C6.56878 15.0534 6.94574 15.1656 7.26689 15.378C7.58803 15.5903 7.8389 15.8933 7.9877 16.2484C8.13649 16.6035 8.17652 16.9947 8.1027 17.3726C8.02888 17.7505 7.84454 18.0979 7.57304 18.3709C7.30154 18.6439 6.95511 18.8302 6.57765 18.906C6.20019 18.9819 5.8087 18.9441 5.45279 18.7972C5.09688 18.6504 4.79258 18.4012 4.57846 18.0812C4.36434 17.7612 4.25003 17.3849 4.25002 16.9998C4.25001 16.486 4.45341 15.993 4.81575 15.6287C5.1781 15.2644 5.66994 15.0583 6.18377 15.0555Z" fill="white"/>
</svg>
