<svg viewBox="0 0 24 18" fill="none" xmlns="http://www.w3.org/2000/svg">
<path d="M24 1H0V17.0002H24V1Z" fill="#F0F0F0"/>
<path d="M13.5 0.999756H10.5V7.49972H0V10.4997H10.5V16.9997H13.5V10.4997H24V7.49972H13.5V0.999756Z" fill="#D80027"/>
<path d="M18.4587 11.7825L24 14.861V11.7825H18.4587Z" fill="#0052B4"/>
<path d="M14.6087 11.7825L24 16.9998V15.5245L17.2644 11.7825H14.6087Z" fill="#0052B4"/>
<path d="M21.4985 16.9999L14.6087 13.1719V16.9999H21.4985Z" fill="#0052B4"/>
<path d="M14.6087 11.7825L24 16.9998V15.5245L17.2644 11.7825H14.6087Z" fill="#F0F0F0"/>
<path d="M14.6087 11.7825L24 16.9998V15.5245L17.2644 11.7825H14.6087Z" fill="#D80027"/>
<path d="M4.23473 11.7822L0 14.1349V11.7822H4.23473Z" fill="#0052B4"/>
<path d="M9.39131 12.4456V16.9995H1.19489L9.39131 12.4456Z" fill="#0052B4"/>
<path d="M6.73561 11.7825L0 15.5245V16.9998L9.39131 11.7825H6.73561Z" fill="#D80027"/>
<path d="M5.54133 6.21723L0 3.13867V6.21723H5.54133Z" fill="#0052B4"/>
<path d="M9.39131 6.21713L0 0.999756V2.4751L6.73561 6.21713H9.39131Z" fill="#0052B4"/>
<path d="M2.50153 0.999756L9.39131 4.82776V0.999756H2.50153Z" fill="#0052B4"/>
<path d="M9.39131 6.21713L0 0.999756V2.4751L6.73561 6.21713H9.39131Z" fill="#F0F0F0"/>
<path d="M9.39131 6.21713L0 0.999756V2.4751L6.73561 6.21713H9.39131Z" fill="#D80027"/>
<path d="M19.7653 6.21716L24 3.8645V6.21716H19.7653Z" fill="#0052B4"/>
<path d="M14.6087 5.5537V0.999756H22.8051L14.6087 5.5537Z" fill="#0052B4"/>
<path d="M17.2644 6.21713L24 2.4751V0.999756L14.6087 6.21713H17.2644Z" fill="#D80027"/>
</svg>
