<svg width="30" height="30" viewBox="0 0 30 30" fill="none" xmlns="http://www.w3.org/2000/svg">
<path d="M13.4587 17.4648L18.2434 14.7091L13.4587 11.9534V17.4648Z"/>
<path d="M15.291 0C7.16862 0 0.581909 6.58671 0.581909 14.7091C0.581909 22.8314 7.16862 29.4181 15.291 29.4181C23.4133 29.4181 30 22.8314 30 14.7091C30 6.58671 23.4133 0 15.291 0ZM24.4819 14.7241C24.4819 14.7241 24.4819 17.7072 24.1035 19.1456C23.8914 19.9329 23.2706 20.5538 22.4832 20.7656C21.0448 21.1443 15.291 21.1443 15.291 21.1443C15.291 21.1443 9.5522 21.1443 8.09871 20.7506C7.31136 20.5387 6.69056 19.9177 6.47846 19.1303C6.09982 17.7072 6.09982 14.7091 6.09982 14.7091C6.09982 14.7091 6.09982 11.7262 6.47846 10.2878C6.69033 9.50042 7.3264 8.86435 8.09871 8.65248C9.53716 8.27384 15.291 8.27384 15.291 8.27384C15.291 8.27384 21.0448 8.27384 22.4832 8.66751C23.2706 8.87939 23.8914 9.50042 24.1035 10.2878C24.4971 11.7262 24.4819 14.7241 24.4819 14.7241Z"/>
</svg>
