<svg width="29" height="29" viewBox="0 0 29 29" fill="none" xmlns="http://www.w3.org/2000/svg">
<path fill-rule="evenodd" clip-rule="evenodd" d="M18.046 17.0021C17.8965 17.4217 17.1788 17.8041 16.8335 17.8558C16.5244 17.902 16.1329 17.921 15.7025 17.7851C15.4415 17.7017 15.1071 17.5911 14.6793 17.4063C12.8777 16.6287 11.7005 14.8153 11.6108 14.6957C11.521 14.576 10.8776 13.7223 10.8776 12.8388C10.8776 11.9552 11.3416 11.5202 11.5065 11.3407C11.6706 11.1613 11.8654 11.116 11.985 11.116C12.1047 11.116 12.2243 11.1169 12.3294 11.1223C12.44 11.1278 12.5877 11.0806 12.7336 11.4304C12.8831 11.7902 13.242 12.6738 13.2873 12.7635C13.3317 12.8533 13.3616 12.9584 13.3018 13.078C13.242 13.1976 13.2121 13.2728 13.1224 13.378C13.0327 13.4822 12.9339 13.6118 12.8532 13.6924C12.7635 13.7813 12.6693 13.8791 12.7744 14.0586C12.8795 14.238 13.2393 14.8262 13.7731 15.3019C14.4591 15.9137 15.0382 16.1031 15.2176 16.1937C15.3971 16.2834 15.5022 16.268 15.6064 16.1484C15.7115 16.0288 16.0559 15.6246 16.1755 15.4442C16.2952 15.2648 16.4148 15.2947 16.5797 15.3545C16.7438 15.4143 17.6273 15.8484 17.8068 15.939C17.9862 16.0288 18.1058 16.0732 18.1512 16.1484C18.1956 16.2236 18.1956 16.5825 18.046 17.0021ZM14.5325 8.46338C11.2374 8.46338 8.55669 11.1423 8.55579 14.4347C8.55579 15.5629 8.87116 16.6622 9.46929 17.6129L9.61157 17.8385L9.00801 20.0425L11.2691 19.4498L11.4866 19.5785C12.4037 20.1232 13.455 20.4114 14.5271 20.4114H14.5298C17.8222 20.4114 20.502 17.7325 20.5038 14.4392C20.5038 12.8433 19.8839 11.3434 18.7556 10.2143C17.6273 9.08597 16.1275 8.46338 14.5325 8.46338Z" fill="#67D449"/>
<path fill-rule="evenodd" clip-rule="evenodd" d="M14.5299 21.6249H14.5272C13.3237 21.6249 12.1419 21.3232 11.0925 20.7504L7.28172 21.75L8.30216 18.0262C7.67322 16.9369 7.34153 15.7008 7.34244 14.4338C7.34425 10.4726 10.5678 7.25 14.5299 7.25C16.4521 7.25 18.2573 7.99856 19.614 9.35703C20.9706 10.7146 21.7183 12.5198 21.7174 14.4402C21.7156 18.4014 18.4911 21.6249 14.5299 21.6249ZM14.5 0C6.49147 0 0 6.49147 0 14.5C0 22.5076 6.49147 29 14.5 29C22.5076 29 29 22.5076 29 14.5C29 6.49147 22.5076 0 14.5 0Z" fill="#67D449"/>
</svg>
