<svg width="29" height="29" viewBox="0 0 29 29" fill="none" xmlns="http://www.w3.org/2000/svg">
<path d="M14.5 29C22.5081 29 29 22.5081 29 14.5C29 6.49187 22.5081 0 14.5 0C6.49187 0 0 6.49187 0 14.5C0 22.5081 6.49187 29 14.5 29Z" fill="#6F3FAA"/>
<path d="M22.8753 9.79567V9.77425C22.6809 8.98664 22.1734 8.17266 21.5077 7.48721C20.73 6.68312 19.7397 6.05204 18.7939 5.84772H18.7741C15.9536 5.30727 13.0561 5.30727 10.2356 5.84772H10.2158C8.45935 6.22835 6.55293 8.06391 6.12782 9.77425V9.79567C5.60551 12.1669 5.60551 14.6234 6.12782 16.9946V17.0144C6.431 18.2337 7.48555 19.5156 8.70157 20.29C9.0987 20.5488 9.53098 20.7492 9.98515 20.8849V22.7929C9.98579 22.9454 10.0318 23.0943 10.1174 23.2205C10.2029 23.3467 10.3241 23.4446 10.4655 23.5017C10.6069 23.5588 10.7621 23.5725 10.9113 23.5411C11.0605 23.5096 11.197 23.4345 11.3033 23.3252L13.2378 21.3149C13.6563 21.338 14.0781 21.3512 14.4966 21.3512C15.9293 21.3507 17.3587 21.215 18.7659 20.9458H18.7857C20.5372 20.5636 22.4453 18.728 22.8671 17.0177V16.9979C23.3926 14.6262 23.3954 12.1685 22.8753 9.79567ZM21.3446 16.642C21.0612 17.7575 19.6145 19.1465 18.4627 19.4019C16.9667 19.6885 15.4442 19.8128 13.9216 19.7727C13.9067 19.7717 13.8919 19.7742 13.8782 19.78C13.8645 19.7857 13.8523 19.7944 13.8425 19.8056L12.4304 21.2556L10.9276 22.7962C10.9036 22.8217 10.8725 22.8393 10.8383 22.8468C10.8042 22.8543 10.7685 22.8514 10.7361 22.8384C10.7036 22.8255 10.6757 22.8031 10.6561 22.7741C10.6365 22.7451 10.6261 22.7109 10.6261 22.676V19.5123C10.6262 19.4869 10.6173 19.4622 10.601 19.4427C10.5848 19.4231 10.5622 19.4098 10.5371 19.4052C10.2969 19.3482 10.0653 19.2595 9.84839 19.1416C8.86964 18.6193 7.88265 17.5482 7.65526 16.642C7.18427 14.4986 7.18427 12.2785 7.65526 10.1351C7.93702 9.02454 9.39197 7.6388 10.5355 7.38175C13.1541 6.8807 15.8441 6.8807 18.4627 7.38175C19.0971 7.52346 19.8221 8.00624 20.3889 8.59942C20.8552 9.08221 21.2128 9.63914 21.3446 10.14C21.8148 12.2819 21.8148 14.5002 21.3446 16.642Z" fill="white"/>
<path d="M18.504 16.8067C18.2899 17.2953 17.9218 17.7003 17.456 17.9601C17.3098 18.0222 17.1581 18.0702 17.0029 18.1035C16.8266 18.0508 16.6585 18.0145 16.5086 17.9503C15.2595 17.4642 14.0967 16.7805 13.0648 15.9252C12.7583 15.6638 12.4703 15.3813 12.203 15.0799C11.543 14.3198 10.9888 13.474 10.5553 12.5655C10.3444 12.1354 10.1665 11.6905 9.9852 11.2473C9.82043 10.8436 10.0643 10.4234 10.3147 10.1219C10.5599 9.84226 10.8614 9.61764 11.1996 9.46281C11.3186 9.40302 11.4547 9.38676 11.5844 9.41685C11.7142 9.44695 11.8293 9.52151 11.9097 9.62759C12.3307 10.1006 12.7018 10.6157 13.017 11.1649C13.1163 11.3246 13.1503 11.5164 13.112 11.7005C13.0736 11.8846 12.9659 12.0468 12.8111 12.1536C12.7287 12.2112 12.6463 12.2771 12.5754 12.3414C12.5056 12.3931 12.4454 12.4567 12.3975 12.5292C12.3562 12.5971 12.3311 12.6736 12.3242 12.7528C12.3174 12.832 12.3289 12.9117 12.3579 12.9857C12.6759 13.8606 13.1587 14.5905 13.8804 15.103C14.1247 15.2757 14.3878 15.42 14.6647 15.533C14.8456 15.6314 15.0488 15.6813 15.2546 15.678C15.6138 15.6352 15.7325 15.2381 15.9829 15.0338C16.0979 14.9396 16.2402 14.8851 16.3886 14.8783C16.537 14.8715 16.6837 14.9127 16.8068 14.9959C17.0737 15.1607 17.3308 15.3468 17.5878 15.5281C17.8421 15.7016 18.0868 15.8886 18.3211 16.0883C18.4306 16.1679 18.5089 16.2833 18.5423 16.4145C18.5757 16.5457 18.5621 16.6845 18.504 16.8067Z" fill="white"/>
<path d="M14.9728 8.91089H14.7619C14.8295 8.90759 14.9003 8.91089 14.9728 8.91089Z" fill="white"/>
<path d="M18.6192 13.8491C18.4544 13.8491 18.3737 13.7091 18.3622 13.5558C18.3407 13.2543 18.3243 12.9511 18.2831 12.6512C18.2119 12.1453 18.0356 11.6598 17.7657 11.2259C17.4882 10.774 17.119 10.3853 16.6819 10.085C16.2448 9.78473 15.7496 9.57951 15.2282 9.48265C14.9909 9.43981 14.7487 9.42992 14.5098 9.4052C14.3582 9.38873 14.1588 9.37884 14.1259 9.191C14.1209 9.15452 14.1239 9.1174 14.1344 9.08214C14.145 9.04688 14.163 9.01427 14.1871 8.98651C14.2113 8.95875 14.2411 8.93646 14.2746 8.92115C14.3081 8.90583 14.3444 8.89784 14.3813 8.8977C14.4208 8.89543 14.4604 8.89543 14.4999 8.8977C15.2201 8.9038 15.9277 9.08743 16.56 9.43232C17.1923 9.77722 17.7298 10.2727 18.1249 10.875C18.4368 11.3604 18.6485 11.9032 18.7477 12.4716C18.8103 12.8275 18.8334 13.1933 18.8614 13.5558C18.8671 13.5914 18.8651 13.6277 18.8556 13.6624C18.8461 13.6971 18.8294 13.7294 18.8065 13.7571C18.7836 13.7848 18.755 13.8074 18.7227 13.8232C18.6904 13.8391 18.6552 13.8479 18.6192 13.8491Z" fill="white"/>
<path d="M17.7278 13.0795C17.7269 13.1285 17.7203 13.1771 17.7081 13.2245C17.6937 13.2722 17.665 13.3142 17.6258 13.345C17.5867 13.3757 17.539 13.3936 17.4894 13.3963C17.4397 13.3991 17.3903 13.3864 17.3481 13.3601C17.3059 13.3337 17.2728 13.2951 17.2533 13.2493C17.2352 13.1827 17.2268 13.1139 17.2286 13.0449C17.2324 12.6764 17.1595 12.3111 17.0144 11.9723C16.9814 11.8998 16.9452 11.8256 16.904 11.7548C16.6681 11.3482 16.318 11.0199 15.8972 10.8106C15.6433 10.6907 15.3737 10.6075 15.0964 10.5635C14.9745 10.5437 14.8526 10.5322 14.7306 10.5157C14.6989 10.5141 14.6678 10.506 14.6393 10.4919C14.6108 10.4778 14.5855 10.4581 14.565 10.4338C14.5445 10.4096 14.5291 10.3814 14.5199 10.3509C14.5107 10.3205 14.5078 10.2886 14.5115 10.257C14.5115 10.2247 14.5183 10.1928 14.5316 10.1633C14.5448 10.1339 14.5641 10.1075 14.5882 10.0861C14.6123 10.0646 14.6407 10.0484 14.6715 10.0387C14.7023 10.029 14.7348 10.0259 14.7669 10.0296C15.2507 10.0483 15.7247 10.172 16.1559 10.3921C16.6825 10.6571 17.1121 11.0815 17.3835 11.6048C17.5363 11.9104 17.6387 12.2387 17.6867 12.577C17.6955 12.6211 17.7021 12.6657 17.7064 12.7105C17.7147 12.8093 17.718 12.9082 17.7262 13.0301C17.7262 13.0416 17.7278 13.0565 17.7278 13.0795Z" fill="white"/>
<path d="M16.5991 12.8522C16.5898 12.8939 16.5682 12.932 16.537 12.9613C16.5059 12.9907 16.4667 13.0101 16.4244 13.0169H16.3882C16.3342 13.0204 16.2806 13.0063 16.2354 12.9765C16.1902 12.9468 16.1559 12.9031 16.1377 12.8522C16.1275 12.8252 16.1208 12.7969 16.118 12.7681C16.1093 12.6573 16.0928 12.5471 16.0685 12.4386C16.0196 12.2189 15.8947 12.0234 15.7159 11.8866C15.6295 11.8245 15.5331 11.7777 15.4309 11.7482C15.3007 11.7103 15.1639 11.7202 15.0354 11.6889C14.9719 11.6776 14.9154 11.6416 14.8784 11.5888C14.8413 11.536 14.8267 11.4707 14.8377 11.4071C14.85 11.3462 14.884 11.2919 14.9334 11.2543C14.9829 11.2167 15.0443 11.1984 15.1063 11.2028C15.8609 11.2572 16.4244 11.6197 16.5694 12.4287C16.5844 12.5038 16.5948 12.5797 16.6008 12.6561C16.61 12.7212 16.6094 12.7873 16.5991 12.8522Z" fill="white"/>
</svg>
