<svg width="29" height="30" viewBox="0 0 29 30" fill="none" xmlns="http://www.w3.org/2000/svg">
<g clip-path="url(#clip0)">
<path d="M14.5 29.418C22.5081 29.418 29 22.9261 29 14.918C29 6.90984 22.5081 0.417969 14.5 0.417969C6.49187 0.417969 0 6.90984 0 14.918C0 22.9261 6.49187 29.418 14.5 29.418Z" fill="#0776FA"/>
<path fill-rule="evenodd" clip-rule="evenodd" d="M13.9522 21.2775H15.0903C15.0903 21.2775 15.4341 21.2398 15.6096 21.0506C15.7711 20.8769 15.766 20.5507 15.766 20.5507C15.766 20.5507 15.7437 19.0236 16.4525 18.7987C17.1511 18.5772 18.0483 20.2746 18.9993 20.9273C19.7183 21.4212 20.2648 21.3129 20.2648 21.3129L22.8074 21.2775C22.8074 21.2775 24.1375 21.1956 23.5068 20.1498C23.4551 20.0642 23.1395 19.3762 21.6163 17.9623C20.022 16.4825 20.2355 16.7219 22.156 14.1622C23.3256 12.6033 23.7932 11.6516 23.6472 11.244C23.5079 10.8558 22.6476 10.9584 22.6476 10.9584L19.7848 10.9762C19.7848 10.9762 19.5726 10.9473 19.4151 11.0413C19.2613 11.1336 19.1624 11.3487 19.1624 11.3487C19.1624 11.3487 18.7092 12.555 18.1049 13.5809C16.8301 15.7456 16.3204 15.8599 16.1121 15.7255C15.6274 15.4122 15.7484 14.4669 15.7484 13.7954C15.7484 11.6976 16.0666 10.8229 15.1288 10.5965C14.8176 10.5213 14.5886 10.4717 13.7928 10.4637C12.7713 10.4531 11.9067 10.4668 11.4171 10.7066C11.0914 10.8661 10.8402 11.2215 10.9932 11.2419C11.1824 11.2673 11.611 11.3575 11.8382 11.6669C12.1315 12.0659 12.1212 12.9623 12.1212 12.9623C12.1212 12.9623 12.2897 15.4318 11.7275 15.7386C11.3416 15.949 10.8123 15.5194 9.67576 13.5555C9.09341 12.5496 8.65374 11.4376 8.65374 11.4376C8.65374 11.4376 8.56896 11.2298 8.41775 11.1186C8.23424 10.984 7.97783 10.9411 7.97783 10.9411L5.25737 10.9589C5.25737 10.9589 4.84897 10.9703 4.69906 11.1478C4.56568 11.3058 4.68846 11.6325 4.68846 11.6325C4.68846 11.6325 6.8183 16.6154 9.22989 19.1265C11.4412 21.4287 13.9522 21.2775 13.9522 21.2775Z" fill="#1A2839"/>
</g>
<defs>
<clipPath id="clip0">
<rect width="29" height="29" fill="white" transform="translate(0 0.417969)"/>
</clipPath>
</defs>
</svg>
