<svg width="30" height="30" viewBox="0 0 30 30" fill="none" xmlns="http://www.w3.org/2000/svg">
<path d="M17.9124 14.709C17.9124 16.2639 16.652 17.5244 15.097 17.5244C13.5421 17.5244 12.2816 16.2639 12.2816 14.709C12.2816 13.154 13.5421 11.8936 15.097 11.8936C16.652 11.8936 17.9124 13.154 17.9124 14.709Z"/>
<path d="M21.6812 9.72791C21.5459 9.36117 21.33 9.02922 21.0494 8.75675C20.7769 8.47619 20.4452 8.26028 20.0783 8.12494C19.7806 8.00935 19.3336 7.87177 18.5101 7.83429C17.6193 7.79367 17.3522 7.78491 15.097 7.78491C12.8416 7.78491 12.5745 7.79344 11.6839 7.83406C10.8604 7.87177 10.4131 8.00935 10.1157 8.12494C9.74874 8.26028 9.41679 8.47619 9.14455 8.75675C8.86399 9.02922 8.64808 9.36095 8.51252 9.72791C8.39693 10.0255 8.25934 10.4728 8.22186 11.2963C8.18124 12.1869 8.17249 12.454 8.17249 14.7094C8.17249 16.9646 8.18124 17.2317 8.22186 18.1225C8.25934 18.946 8.39693 19.3931 8.51252 19.6907C8.64808 20.0576 8.86377 20.3894 9.14432 20.6618C9.41679 20.9424 9.74852 21.1583 10.1155 21.2936C10.4131 21.4095 10.8604 21.547 11.6839 21.5845C12.5745 21.6251 12.8413 21.6337 15.0968 21.6337C17.3524 21.6337 17.6195 21.6251 18.5099 21.5845C19.3333 21.547 19.7806 21.4095 20.0783 21.2936C20.8149 21.0095 21.3971 20.4273 21.6812 19.6907C21.7968 19.3931 21.9344 18.946 21.9721 18.1225C22.0127 17.2317 22.0213 16.9646 22.0213 14.7094C22.0213 12.454 22.0127 12.1869 21.9721 11.2963C21.9346 10.4728 21.797 10.0255 21.6812 9.72791ZM15.097 19.0463C12.7015 19.0463 10.7596 17.1047 10.7596 14.7092C10.7596 12.3137 12.7015 10.3721 15.097 10.3721C17.4922 10.3721 19.4341 12.3137 19.4341 14.7092C19.4341 17.1047 17.4922 19.0463 15.097 19.0463ZM19.6056 11.2142C19.0458 11.2142 18.592 10.7603 18.592 10.2006C18.592 9.64083 19.0458 9.187 19.6056 9.187C20.1653 9.187 20.6192 9.64083 20.6192 10.2006C20.6189 10.7603 20.1653 11.2142 19.6056 11.2142Z"/>
<path d="M15.097 0C6.97465 0 0.387939 6.58671 0.387939 14.7091C0.387939 22.8314 6.97465 29.4181 15.097 29.4181C23.2193 29.4181 29.806 22.8314 29.806 14.7091C29.806 6.58671 23.2193 0 15.097 0ZM23.4923 18.1913C23.4514 19.0904 23.3084 19.7042 23.0997 20.2416C22.6609 21.3761 21.7641 22.273 20.6295 22.7118C20.0924 22.9205 19.4783 23.0632 18.5794 23.1043C17.6788 23.1454 17.391 23.1553 15.0972 23.1553C12.8032 23.1553 12.5157 23.1454 11.6148 23.1043C10.7159 23.0632 10.1018 22.9205 9.56471 22.7118C9.00091 22.4997 8.49053 22.1673 8.06858 21.7375C7.639 21.3157 7.3066 20.8051 7.0945 20.2416C6.88577 19.7045 6.7428 19.0904 6.70195 18.1915C6.66043 17.2906 6.65078 17.0029 6.65078 14.7091C6.65078 12.4153 6.66043 12.1275 6.70173 11.2268C6.74257 10.3277 6.88532 9.71386 7.09405 9.17655C7.30615 8.61297 7.63877 8.10237 8.06858 7.68064C8.49031 7.25083 9.00091 6.91843 9.56449 6.70634C10.1018 6.49761 10.7157 6.35486 11.6148 6.31379C12.5155 6.27271 12.8032 6.26284 15.097 6.26284C17.3908 6.26284 17.6785 6.27271 18.5792 6.31401C19.4783 6.35486 20.0922 6.49761 20.6295 6.70611C21.1931 6.91821 21.7037 7.25083 22.1256 7.68064C22.5552 8.10259 22.8878 8.61297 23.0997 9.17655C23.3087 9.71386 23.4514 10.3277 23.4925 11.2268C23.5336 12.1275 23.5432 12.4153 23.5432 14.7091C23.5432 17.0029 23.5336 17.2906 23.4923 18.1913Z"/>
</svg>
