<svg width="30" height="30" viewBox="0 0 30 30" fill="none" xmlns="http://www.w3.org/2000/svg">
<path d="M29.6121 14.7091C29.6121 6.58671 23.0254 0 14.903 0C6.78068 0 0.19397 6.58671 0.19397 14.7091C0.19397 22.8314 6.78068 29.4181 14.903 29.4181C14.9894 29.4181 15.0754 29.4163 15.1616 29.4147V17.9644H12.0014V14.2815H15.1616V11.5713C15.1616 8.42826 17.0803 6.71756 19.8841 6.71756C21.2267 6.71756 22.3808 6.81766 22.7172 6.86232V10.1473H20.7839C19.2585 10.1473 18.9632 10.8722 18.9632 11.9358V14.2815H22.6104L22.135 17.9644H18.9632V28.8498C25.1113 27.0873 29.6121 21.423 29.6121 14.7091Z"/>
</svg>
