<svg width="23" height="24" viewBox="0 0 23 24" fill="none" xmlns="http://www.w3.org/2000/svg">
<path d="M15.6337 7.27246C15.3853 7.27246 15.1836 7.48193 15.1836 7.74103C15.1836 7.99994 15.3853 8.20978 15.6337 8.20978C15.8827 8.20978 16.0838 7.99994 16.0838 7.74103C16.0838 7.48193 15.8827 7.27246 15.6337 7.27246Z"/>
<path d="M7.45559 15.7893C7.20663 15.7893 7.00549 15.9993 7.00549 16.2581C7.00549 16.5173 7.20663 16.7268 7.45559 16.7268C7.70402 16.7268 7.90569 16.5173 7.90569 16.2581C7.90569 15.9993 7.70402 15.7893 7.45559 15.7893Z"/>
<path d="M22.5075 2.88377C22.3556 2.84697 22.1959 2.89476 22.0862 3.01012L20.2203 4.9688H19.3257L18.3409 3.90624V2.96159L20.1802 1.01756C20.289 0.902572 20.3333 0.737228 20.2973 0.57994C20.2614 0.422835 20.1503 0.296126 20.0033 0.24449C19.5412 0.0822589 19.0577 4.44711e-05 18.566 4.44711e-05C17.1 4.44711e-05 15.7682 0.711959 14.9119 1.95323C14.1105 3.11522 13.8635 4.53923 14.2174 5.90209L10.902 9.35491L5.37845 3.58928V2.45769C5.37845 2.29308 5.29546 2.14037 5.15991 2.05577L1.9774 0.066878C1.80017 -0.0439009 1.57354 -0.0147871 1.42761 0.137374L0.154677 1.46288C0.008747 1.61504 -0.0192083 1.85106 0.0869867 2.03563L1.99639 5.35002C2.07761 5.4912 2.22407 5.57744 2.38213 5.57762L3.46835 5.57799L8.99242 11.3436L5.68965 14.7833C4.38103 14.4148 3.01297 14.6725 1.8967 15.5076C0.70552 16.3988 0.0224609 17.7855 0.0224609 19.3122C0.0224609 19.8242 0.101404 20.3279 0.25718 20.8089C0.306937 20.9629 0.429835 21.0792 0.581743 21.1158C0.733827 21.1526 0.893295 21.1048 1.00318 20.9894L2.86898 19.0309H3.76847L4.79332 20.0983V21.035L2.91276 22.9781C2.80199 23.0926 2.7561 23.2587 2.79144 23.4171C2.82661 23.5753 2.93825 23.7032 3.08612 23.7551C3.54799 23.9173 4.03167 23.9995 4.52326 23.9995C5.98925 23.9995 7.32055 23.288 8.17644 22.0474C8.97835 20.8849 9.22573 19.4603 8.87198 18.0975L11.5246 15.335L12.1322 16.0223L11.8534 16.3126C11.6775 16.4957 11.6775 16.7925 11.8534 16.9756C12.0292 17.1585 12.314 17.1585 12.49 16.9756L12.7425 16.7126L18.4436 23.162C18.4478 23.1667 18.4522 23.1713 18.4566 23.1759C19.5115 24.2745 21.2207 24.2749 22.2761 23.1757C23.3286 22.0791 23.3286 20.2947 22.2761 19.1981C22.2715 19.1934 22.2668 19.1888 22.262 19.1842L16.0597 13.2582L16.3093 12.9982C16.4851 12.8152 16.4851 12.5184 16.3093 12.3353C16.1335 12.1522 15.8487 12.1522 15.6727 12.3353L15.3958 12.6239L14.7345 11.9918L17.3999 9.21593C17.7788 9.3214 18.1698 9.37487 18.566 9.37487C21.0478 9.37487 23.0668 7.27208 23.0668 4.68755C23.0668 4.1754 22.9878 3.67186 22.8321 3.19066C22.7823 3.03667 22.6594 2.9204 22.5075 2.88377ZM3.97365 4.77818C3.88926 4.69011 3.7748 4.64525 3.65524 4.64525L2.63725 4.64488L1.03975 1.86717L1.81564 1.05913L4.47825 2.72319V3.78337C4.47825 3.90752 4.52555 4.02654 4.60977 4.11443L10.2655 10.0179L9.62889 10.6808L3.97365 4.77818ZM15.4225 13.9217L21.646 19.8677C22.3412 20.5994 22.3391 21.7841 21.6395 22.5131C20.9383 23.2433 19.8032 23.2455 19.0992 22.5195L13.3795 16.0491L15.4225 13.9217ZM14.7586 13.2873L12.7692 15.3588L12.1616 14.6714L14.0973 12.6552L14.7586 13.2873ZM18.566 8.43737C18.1723 8.43737 17.7852 8.37163 17.4156 8.24199C17.2536 8.18541 17.0747 8.22899 16.9537 8.35479C14.6972 10.7048 9.83512 15.7682 8.04475 17.6329C7.92379 17.7589 7.88177 17.9453 7.93645 18.1141C8.31059 19.2712 8.13161 20.5053 7.44521 21.5005C6.76074 22.4927 5.69563 23.062 4.52326 23.062C4.39158 23.062 4.26059 23.0545 4.13084 23.04L5.56042 21.5627C5.64552 21.4749 5.69352 21.3551 5.69352 21.23V19.904C5.69352 19.7797 5.64605 19.6605 5.56165 19.5726L4.27307 18.2306C4.18868 18.1427 4.07422 18.0933 3.95484 18.0933H2.68155C2.56147 18.0933 2.44648 18.1432 2.36192 18.2319L0.943579 19.7207C0.929514 19.5856 0.922481 19.4492 0.922481 19.312C0.922481 18.0909 1.46893 16.9818 2.42187 16.269C3.37727 15.5541 4.56247 15.3675 5.67365 15.7574C5.83558 15.8143 6.01456 15.7706 6.13553 15.6446C6.16032 15.619 15.0381 6.37303 15.0445 6.36644C15.1654 6.24047 15.2073 6.05425 15.1528 5.88542C14.7785 4.72838 14.9571 3.49461 15.643 2.50017C16.328 1.507 17.3932 0.937545 18.5658 0.937545C18.7015 0.937545 18.8364 0.945419 18.97 0.9608L17.5701 2.44048C17.4871 2.52818 17.4407 2.64629 17.4407 2.76933V4.09538C17.4407 4.21697 17.4859 4.3336 17.567 4.42095L18.8105 5.76293C18.8953 5.85448 19.0122 5.90612 19.1344 5.90612H20.4077C20.5276 5.90612 20.6426 5.85631 20.7271 5.7675L22.1455 4.27886C22.1595 4.41399 22.1666 4.5504 22.1666 4.68755C22.1666 6.75518 20.5513 8.43737 18.566 8.43737Z"/>
<path d="M14.0426 8.73547L8.41018 14.6013C8.23453 14.7842 8.23453 15.081 8.41018 15.2641C8.58599 15.4472 8.871 15.4472 9.04682 15.2641L14.6792 9.39832C14.855 9.21539 14.855 8.91858 14.6792 8.73547C14.5034 8.55237 14.2184 8.55237 14.0426 8.73547Z"/>
<path d="M19.7302 21.1876C19.9061 21.3701 20.1911 21.3701 20.3669 21.1865C20.5423 21.0032 20.5418 20.7064 20.3658 20.5236L16.3088 16.312C16.1328 16.1293 15.8476 16.1298 15.6723 16.3131C15.4967 16.4966 15.4972 16.7932 15.6732 16.9759L19.7302 21.1876Z"/>
</svg>
