<svg width="42" height="34" viewBox="0 0 42 34" fill="none" xmlns="http://www.w3.org/2000/svg">
<g clip-path="url(#clip0)">
<path d="M40.7695 6.54367H31.4563V3.82024C31.4563 1.70375 29.7461 -0.0461426 27.5898 -0.0461426H14.4102C12.2971 -0.0461426 10.5437 1.66101 10.5437 3.82024V6.54367H1.23047C0.550922 6.54367 0 7.0946 0 7.77414V32.8156C0 33.4951 0.550922 34.046 1.23047 34.046H40.7695C41.4491 34.046 42 33.4951 42 32.8156V7.77414C42 7.0946 41.4491 6.54367 40.7695 6.54367ZM13.0047 3.82024C13.0047 3.04422 13.6329 2.41479 14.4102 2.41479H27.5898C28.3644 2.41479 28.9953 3.04143 28.9953 3.82024V6.54367H13.0047V3.82024ZM2.46094 9.00461H39.5391V13.1335H2.46094V9.00461ZM39.5391 31.5851H2.46094V15.5944H39.5391V31.5851Z" fill="white"/>
<path d="M16.5103 26.1822C16.8501 26.7707 17.6025 26.9723 18.1911 26.6325L18.4433 26.4868C18.8259 26.8248 19.2755 27.088 19.7695 27.2544V27.5438C19.7695 28.2233 20.3204 28.7743 20.9999 28.7743C21.6795 28.7743 22.2304 28.2233 22.2304 27.5438V27.2544C22.7245 27.088 23.174 26.8248 23.5566 26.4868L23.8088 26.6324C24.3973 26.9724 25.1499 26.7707 25.4896 26.1821C25.8294 25.5936 25.6278 24.841 25.0392 24.5013L24.7896 24.3571C24.8397 24.1091 24.8663 23.8526 24.8663 23.5899C24.8663 23.3272 24.8397 23.0707 24.7896 22.8227L25.0392 22.6785C25.6278 22.3388 25.8294 21.5862 25.4896 20.9977C25.1497 20.4091 24.3973 20.2076 23.8088 20.5474L23.5566 20.693C23.1741 20.355 22.7245 20.0918 22.2304 19.9254V19.636C22.2304 18.9564 21.6795 18.4055 20.9999 18.4055C20.3204 18.4055 19.7695 18.9564 19.7695 19.636V19.9254C19.2755 20.0918 18.8259 20.355 18.4433 20.693L18.191 20.5474C17.6024 20.2074 16.85 20.4091 16.5102 20.9977C16.1703 21.5862 16.372 22.3388 16.9606 22.6785L17.2103 22.8227C17.1601 23.0707 17.1336 23.3272 17.1336 23.5898C17.1336 23.8525 17.1601 24.109 17.2103 24.357L16.9606 24.5012C16.3721 24.8411 16.1704 25.5937 16.5103 26.1822ZM20.9999 22.1845C21.7749 22.1845 22.4055 22.8149 22.4055 23.5899C22.4055 24.3648 21.7749 24.9953 20.9999 24.9953C20.225 24.9953 19.5945 24.3648 19.5945 23.5899C19.5945 22.8149 20.225 22.1845 20.9999 22.1845Z" fill="white"/>
</g>
<defs>
<clipPath id="clip0">
<rect width="42" height="34" fill="white"/>
</clipPath>
</defs>
</svg>
