<svg width="42" height="39" viewBox="0 0 42 39" fill="none" xmlns="http://www.w3.org/2000/svg">
<path d="M21 7.1875C13.7629 7.1875 7.875 13.0754 7.875 20.3125C7.875 27.5496 13.7629 33.4375 21 33.4375C28.2371 33.4375 34.125 27.5496 34.125 20.3125C34.125 13.0754 28.2371 7.1875 21 7.1875ZM30.0825 15.0691L25.1554 17.1415C24.4532 16.2241 23.4622 15.5481 22.3125 15.2489V9.90306C25.6344 10.3204 28.4734 12.2931 30.0825 15.0691ZM18.375 20.3125C18.375 19.9542 18.4485 19.6116 18.5784 19.3006C18.5784 19.2992 18.5797 19.2979 18.5811 19.2966C18.5824 19.294 18.5811 19.2927 18.5824 19.2901C18.9827 18.349 19.9146 17.6875 21 17.6875C22.0854 17.6875 23.0186 18.349 23.4176 19.2901C23.4189 19.2914 23.4176 19.294 23.4189 19.2953C23.4189 19.2966 23.4202 19.2979 23.4202 19.2979C23.5515 19.6103 23.625 19.9529 23.625 20.3125C23.625 21.7602 22.4477 22.9375 21 22.9375C19.5523 22.9375 18.375 21.7602 18.375 20.3125ZM19.6875 9.90306V15.2489C18.5364 15.5481 17.5468 16.2227 16.8446 17.1415L11.9175 15.0691C13.5253 12.2931 16.3656 10.3204 19.6875 9.90306ZM10.8964 17.488L15.8248 19.5604C15.6148 21.0107 15.9587 22.2826 16.7646 23.3877L13.3717 27.5063C10.9016 24.8879 9.86869 21.1591 10.8964 17.488ZM15.3983 29.1771L18.7911 25.0572C19.4644 25.3735 20.2086 25.5625 21 25.5625C21.9174 25.5625 22.7692 25.3053 23.52 24.8892L26.7868 29.0642C25.1265 30.1667 23.1381 30.8125 21 30.8125C18.9394 30.8125 17.0218 30.2074 15.3983 29.1771ZM28.7752 27.3449L25.4415 23.0832C26.1686 21.9229 26.3511 20.7745 26.1752 19.5604L31.1036 17.488C32.1169 21.1079 31.1233 24.7501 28.7752 27.3449Z" fill="white"/>
<path d="M21 1.9375C10.8675 1.9375 2.625 10.18 2.625 20.3125C2.625 24.0452 3.77081 27.6914 5.87869 30.7456C4.58981 31.4976 3.9375 32.3993 3.9375 33.4375C3.9375 36.3814 8.2425 37.375 21 37.375C33.7575 37.375 38.0625 36.3814 38.0625 33.4375C38.0625 32.3993 37.4102 31.4976 36.1213 30.7456C38.2292 27.6914 39.375 24.0452 39.375 20.3125C39.375 10.18 31.1325 1.9375 21 1.9375ZM32.8217 31.5842C32.9306 31.9951 33.2325 32.3284 33.6315 32.4781C34.6999 32.8771 35.1947 33.2393 35.3666 33.3797C34.7419 33.868 32.0762 34.75 21 34.75C10.059 34.75 7.32506 33.8903 6.657 33.3968C6.86175 33.1999 7.35919 32.8547 8.3685 32.4781C8.7675 32.3297 9.06938 31.9964 9.17831 31.5842C9.28725 31.1721 9.18881 30.7337 8.91581 30.4069C6.552 27.5798 5.25 23.9967 5.25 20.3125C5.25 11.6277 12.3152 4.5625 21 4.5625C29.6848 4.5625 36.75 11.6277 36.75 20.3125C36.75 23.9967 35.448 27.5798 33.0842 30.4056C32.8112 30.7324 32.7127 31.1708 32.8217 31.5842Z" fill="white"/>
</svg>
