<svg width="36" height="36" viewBox="0 0 36 36" fill="none" xmlns="http://www.w3.org/2000/svg">
<path d="M34.456 27.0227C31.234 23.8007 31.4453 24.0048 31.3546 23.9379L22.8259 17.6409L26.1345 14.3327C28.7945 15.2806 31.8062 14.6252 33.8331 12.5983C36.0414 10.3901 36.621 7.01405 35.2755 4.19754C34.9619 3.54132 34.0922 3.39268 33.5786 3.90645L30.8511 6.63394C30.44 7.04499 29.7713 7.04506 29.36 6.63394C28.9479 6.22184 28.9479 5.555 29.36 5.1429L32.0875 2.41533C32.6018 1.90114 32.4522 1.03165 31.7964 0.718482C28.9799 -0.627018 25.604 -0.0473622 23.3956 2.1608C21.3683 4.18819 20.7137 7.20003 21.6613 9.85939L17.8456 13.6748C17.0687 13.0705 18.0939 14.1026 10.7768 6.3439L11.5438 5.57687C12.029 5.09178 11.9279 4.27953 11.3408 3.92726L5.6937 0.538974C4.21341 -0.349214 2.32714 -0.117042 1.10644 1.10365C-0.114181 2.32428 -0.346423 4.21069 0.541764 5.69091L3.93005 11.3381C4.28288 11.9263 5.09548 12.0253 5.57966 11.5411L6.30303 10.8177C13.5822 18.5363 12.6241 17.4879 13.1996 18.2278C13.2132 18.2453 13.2284 18.2607 13.2429 18.2772L9.85937 21.6604C7.20015 20.7128 4.1881 21.3674 2.16085 23.3948C-0.0473839 25.603 -0.62704 28.979 0.71853 31.7956C1.03219 32.4519 1.90168 32.6004 2.41545 32.0867L5.14294 29.3591C5.5542 28.948 6.22294 28.9481 6.63406 29.3591C7.04616 29.7712 7.04616 30.438 6.63406 30.8501L3.90643 33.5777C3.39216 34.0919 3.54179 34.9614 4.19752 35.2746C5.20988 35.7582 6.29424 35.9931 7.37101 35.9931C9.28983 35.9931 11.1838 35.2468 12.5983 33.8323C14.6257 31.8049 15.2802 28.7931 14.3326 26.1336L17.2222 23.2443L23.95 31.4202C24.0012 31.4822 23.8323 31.3094 26.8413 34.3184C27.9367 35.4138 29.393 35.9817 30.8251 35.9817C31.8758 35.9817 32.9136 35.6757 33.7852 35.048C36.4452 33.1322 36.7588 29.3253 34.456 27.0227ZM7.09229 8.58118C6.68356 8.14784 5.99837 8.14025 5.57966 8.55903L5.04338 9.09523L2.34992 4.60599C1.96053 3.95701 2.06227 3.12992 2.59749 2.5947C3.13271 2.05941 3.9598 1.95774 4.60871 2.34713L9.09795 5.04066L8.56168 5.57679C8.15844 5.98004 8.14887 6.63085 8.54016 7.04569C16.9476 15.9605 15.6251 14.6191 16.3428 15.1773L14.7427 16.7773C14.1897 16.0662 15.4737 17.4685 7.09229 8.58118ZM12.3437 25.1403C12.0277 25.4563 11.9453 25.9371 12.1379 26.3404C13.099 28.3521 12.6847 30.7636 11.1073 32.3411C10.0966 33.3518 8.74379 33.885 7.37283 33.8849C7.12625 33.8849 6.87917 33.8677 6.63329 33.8328L8.12504 32.341C9.3612 31.1049 9.36141 29.1041 8.12504 27.8678C6.89183 26.6345 4.88504 26.6346 3.65183 27.8678L2.16008 29.3596C1.9317 27.747 2.45947 26.0781 3.65183 24.8857C5.22936 23.3081 7.6408 22.8941 9.65258 23.855C10.0557 24.0476 10.5365 23.9653 10.8526 23.6492L23.6502 10.8526C23.9662 10.5366 24.0486 10.0558 23.8561 9.65253C22.895 7.64082 23.3092 5.22924 24.8867 3.65178C26.0793 2.45928 27.748 1.93158 29.3605 2.16003L27.8688 3.65178C27.2713 4.24915 26.9423 5.04354 26.9423 5.88842C26.9423 6.73329 27.2713 7.52755 27.8688 8.12506C29.102 9.35834 31.1088 9.35827 32.342 8.12506L33.8337 6.63331C34.0621 8.24593 33.5344 9.91479 32.342 11.1072C30.7645 12.6847 28.353 13.0989 26.3412 12.1379C25.9381 11.9453 25.4573 12.0277 25.1412 12.3437L12.3437 25.1403ZM18.7159 21.7507L21.3181 19.1487L23.9702 21.1068L20.8015 24.2754C18.6472 21.6574 18.7816 21.8152 18.7159 21.7507ZM32.5528 33.3369C31.323 34.2226 29.5085 34.0037 28.3322 32.8274L25.5457 30.0409L22.1476 25.9114L25.6856 22.3734L30.0386 25.5873L32.9649 28.5136C34.3025 29.8512 34.2165 32.1387 32.5528 33.3369Z" fill="white"/>
<path d="M31.4558 29.8219L27.2383 25.6045C26.8267 25.1927 26.159 25.1927 25.7473 25.6045C25.3355 26.0162 25.3355 26.6838 25.7473 27.0955L29.9647 31.3129C30.3764 31.7246 31.044 31.7247 31.4558 31.3129C31.8675 30.9012 31.8675 30.2336 31.4558 29.8219Z" fill="white"/>
</svg>
