<svg width="27" height="27" viewBox="0 0 27 27" fill="none" xmlns="http://www.w3.org/2000/svg">
<path d="M23.2031 24.0469H24.0469V24.8906H23.2031V24.0469Z"/>
<path d="M24.8906 10.9688V10.4178C25.8698 10.0896 26.5781 9.16523 26.5781 8.07722V7.11028C26.5781 6.02227 25.8698 5.09794 24.8906 4.76972V4.21875C24.8906 3.20034 24.1646 2.34816 23.2031 2.15198V1.6875C23.2031 0.989719 22.6353 0.421875 21.9375 0.421875H18.5625C17.8647 0.421875 17.2969 0.989719 17.2969 1.6875V2.10938H13.5C12.4816 2.10938 11.6294 2.83542 11.4332 3.79688H10.9688C9.95034 3.79688 9.09816 4.52292 8.90198 5.48438H7.59375C6.90736 5.48438 6.30239 5.81892 5.91722 6.32812H1.6875C0.989719 6.32812 0.421875 6.89597 0.421875 7.59375C0.421875 8.29153 0.989719 8.85938 1.6875 8.85938H5.91722C6.30281 9.36858 6.90778 9.70312 7.59375 9.70312H8.90198C9.09816 10.6646 9.94992 11.3906 10.9688 11.3906H11.4332C11.6294 12.3521 12.4812 13.0781 13.5 13.0781H16.0312V14.6479L16.3198 14.7441C17.6614 15.1913 18.5625 16.4417 18.5625 17.8559V22.2742L18.2651 22.0759C17.715 21.7093 17.0754 21.5156 16.4143 21.5156C14.5749 21.5156 13.0781 23.0124 13.0781 24.8518V26.5781H26.5781V22.3594H24.4042L22.8559 13.0705C23.984 13.03 24.8906 12.1061 24.8906 10.9688ZM1.6875 8.01562C1.45463 8.01562 1.26562 7.8262 1.26562 7.59375C1.26562 7.3613 1.45463 7.17188 1.6875 7.17188H5.52698C5.49914 7.30814 5.48438 7.44947 5.48438 7.59375C5.48438 7.73803 5.49914 7.87936 5.52698 8.01562H1.6875ZM6.32812 7.59375C6.32812 6.89597 6.89597 6.32812 7.59375 6.32812H8.85938V8.85938H7.59375C6.89597 8.85938 6.32812 8.29153 6.32812 7.59375ZM9.70312 9.28125V5.90625C9.70312 5.20847 10.271 4.64062 10.9688 4.64062H11.3906V10.5469H10.9688C10.271 10.5469 9.70312 9.97903 9.70312 9.28125ZM25.7344 7.11028V8.07722C25.7344 8.9737 25.005 9.70312 24.1085 9.70312C23.8575 9.70312 23.606 9.64364 23.3812 9.53142L21.1933 8.4375C20.8718 8.27677 20.6719 7.95361 20.6719 7.59375C20.6719 7.23389 20.8718 6.91073 21.1933 6.75L23.3812 5.65608C23.6056 5.54386 23.8575 5.48438 24.1085 5.48438C25.005 5.48438 25.7344 6.2138 25.7344 7.11028ZM18.1406 1.6875C18.1406 1.45505 18.3296 1.26562 18.5625 1.26562H21.9375C22.1704 1.26562 22.3594 1.45505 22.3594 1.6875V2.10938H18.1406V1.6875ZM19.4062 19.8281H20.25V20.25C20.25 20.4825 20.061 20.6719 19.8281 20.6719H19.4062V19.8281ZM20.25 18.9844H19.4062V18.1406H20.25V18.9844ZM20.25 17.2969H19.3645C19.3248 17.0049 19.2493 16.7244 19.151 16.4531H19.8281C20.061 16.4531 20.25 16.6425 20.25 16.875V17.2969ZM25.7344 24.0469H24.8906V24.8906H25.7344V25.7344H13.9219V24.8518C13.9219 23.4773 15.0398 22.3594 16.4143 22.3594C16.4274 22.3594 16.44 22.3619 16.4531 22.3623V23.625C16.4531 24.3228 17.021 24.8906 17.7188 24.8906H22.3594V24.0469H17.7188C17.4859 24.0469 17.2969 23.8575 17.2969 23.625V22.5277C17.4707 22.5939 17.6399 22.6733 17.7972 22.7779L18.4347 23.2031H25.7344V24.0469ZM19.4062 22.3594V21.5156H19.8281C20.5259 21.5156 21.0938 20.9478 21.0938 20.25V16.875C21.0938 16.1772 20.5259 15.6094 19.8281 15.6094H18.738C18.295 14.9276 17.6542 14.3771 16.875 14.0518V13.0781H22.002L23.5491 22.3594H19.4062ZM22.7812 12.2344H13.5C12.8022 12.2344 12.2344 11.6665 12.2344 10.9688V4.21875C12.2344 3.52097 12.8022 2.95312 13.5 2.95312H22.7812C23.479 2.95312 24.0469 3.52097 24.0469 4.21875V4.64442C23.6857 4.6537 23.3263 4.74019 23.0036 4.90177L20.8157 5.99569C20.2065 6.29986 19.8281 6.91242 19.8281 7.59375C19.8281 8.27508 20.2065 8.88764 20.8162 9.19223L23.004 10.2862C23.3267 10.4477 23.6862 10.5342 24.0473 10.5435V10.9688C24.0469 11.6665 23.479 12.2344 22.7812 12.2344Z"/>
<path d="M22.3594 7.17188H23.2031V8.01562H22.3594V7.17188Z"/>
<path d="M24.0469 7.17188H24.8906V8.01562H24.0469V7.17188Z"/>
<path d="M17.7188 3.79688H14.3438C13.646 3.79688 13.0781 4.36472 13.0781 5.0625C13.0781 5.76028 13.646 6.32812 14.3438 6.32812H17.7188C18.4165 6.32812 18.9844 5.76028 18.9844 5.0625C18.9844 4.36472 18.4165 3.79688 17.7188 3.79688ZM17.7188 5.48438H14.3438C14.1109 5.48438 13.9219 5.29495 13.9219 5.0625C13.9219 4.83005 14.1109 4.64062 14.3438 4.64062H17.7188C17.9516 4.64062 18.1406 4.83005 18.1406 5.0625C18.1406 5.29495 17.9516 5.48438 17.7188 5.48438Z"/>
<path d="M20.6719 13.9219H21.5156V14.7656H20.6719V13.9219Z"/>
<path d="M18.9844 13.9219H19.8281V14.7656H18.9844V13.9219Z"/>
<path d="M14.7656 8.01562C13.835 8.01562 13.0781 8.77247 13.0781 9.70312C13.0781 10.6338 13.835 11.3906 14.7656 11.3906C15.6963 11.3906 16.4531 10.6338 16.4531 9.70312C16.4531 8.77247 15.6963 8.01562 14.7656 8.01562ZM14.7656 10.5469C14.3003 10.5469 13.9219 10.1685 13.9219 9.70312C13.9219 9.2378 14.3003 8.85938 14.7656 8.85938C15.231 8.85938 15.6094 9.2378 15.6094 9.70312C15.6094 10.1685 15.231 10.5469 14.7656 10.5469Z"/>
</svg>
