<svg width="34" height="34" viewBox="0 0 34 34" fill="none" xmlns="http://www.w3.org/2000/svg">
<path d="M12.0423 13.1469C10.413 13.7248 9.05982 14.8931 8.25063 16.4209C7.44144 17.9486 7.23514 19.7244 7.67254 21.397C8.10995 23.0695 9.15921 24.517 10.6127 25.453C12.0662 26.389 13.8181 26.7453 15.5218 26.4515C17.2254 26.1577 18.7567 25.2351 19.8128 23.8663C20.8688 22.4976 21.3726 20.7823 21.2245 19.0598C21.0764 17.3373 20.2872 15.7332 19.013 14.5648C17.7388 13.3963 16.0725 12.7487 14.3437 12.75C13.5594 12.7481 12.7807 12.8824 12.0423 13.1469ZM20.1875 19.6563C20.1875 21.2061 19.5718 22.6925 18.4759 23.7884C17.3799 24.8844 15.8936 25.5 14.3437 25.5C12.7939 25.5 11.3075 24.8844 10.2116 23.7884C9.11565 22.6925 8.49997 21.2061 8.49997 19.6563C8.49882 18.4473 8.87338 17.2678 9.57184 16.2809C10.2703 15.2941 11.2581 14.5486 12.3988 14.1477C13.0228 13.9241 13.6809 13.8107 14.3437 13.8125C15.893 13.8143 17.3784 14.4305 18.4739 15.5261C19.5695 16.6216 20.1857 18.107 20.1875 19.6563Z"/>
<path d="M17.7013 16.2569C16.8081 15.3717 15.6015 14.875 14.344 14.875C13.0865 14.875 11.8799 15.3717 10.9867 16.2569C10.9789 16.2638 10.9689 16.2662 10.9614 16.2737C10.9539 16.2811 10.9516 16.2912 10.9446 16.299C10.0594 17.1921 9.56274 18.3987 9.56274 19.6562C9.56274 20.9138 10.0594 22.1204 10.9446 23.0135C10.9516 23.0213 10.954 23.0313 10.9614 23.0388C10.9689 23.0463 10.9789 23.0486 10.9867 23.0556C11.8799 23.9408 13.0865 24.4375 14.344 24.4375C15.6015 24.4375 16.8081 23.9408 17.7013 23.0556C17.7091 23.0486 17.7191 23.0463 17.7266 23.0388C17.7341 23.0314 17.7364 23.0213 17.7434 23.0135C18.6286 22.1204 19.1253 20.9138 19.1253 19.6562C19.1253 18.3987 18.6286 17.1921 17.7434 16.299C17.7364 16.2912 17.734 16.2812 17.7266 16.2737C17.7191 16.2662 17.7089 16.2638 17.7013 16.2569ZM18.02 19.125H16.9453C16.8774 18.7923 16.7462 18.4757 16.5587 18.1925L17.3179 17.4334C17.6902 17.9294 17.9317 18.5111 18.02 19.125ZM17.3178 21.8791L16.5593 21.1206C16.7467 20.8372 16.8778 20.5204 16.9454 20.1875H18.02C17.9317 20.8014 17.6902 21.3831 17.3179 21.8791H17.3178ZM10.6675 20.1875H11.7423C11.8102 20.5202 11.9414 20.8368 12.1288 21.1199L11.3697 21.879C10.9974 21.3831 10.7559 20.8013 10.6675 20.1875ZM11.3697 17.4334L12.1285 18.1919C11.941 18.4752 11.8099 18.792 11.7421 19.125H10.6675C10.7559 18.5111 10.9974 17.9294 11.3697 17.4334H11.3697ZM13.2185 20.7867C12.9953 20.5642 12.8431 20.2806 12.7811 19.9717C12.7191 19.6627 12.7501 19.3423 12.8701 19.051C12.9901 18.7596 13.1938 18.5104 13.4554 18.3348C13.717 18.1591 14.0249 18.065 14.34 18.0643C14.6551 18.0635 14.9633 18.1562 15.2258 18.3306C15.4882 18.505 15.6931 18.7533 15.8145 19.044C15.9358 19.3348 15.9683 19.6551 15.9078 19.9643C15.8472 20.2735 15.6963 20.5579 15.4742 20.7814C15.1702 21.0704 14.767 21.2321 14.3474 21.2331C13.9279 21.234 13.5239 21.0743 13.2185 20.7867ZM15.8082 17.4409C15.5248 17.2535 15.208 17.1223 14.875 17.0546V15.98C15.4889 16.0684 16.0706 16.3099 16.5666 16.6822L15.8082 17.4409ZM13.8125 17.0547C13.4798 17.1226 13.1633 17.2539 12.8801 17.4413L12.1209 16.6822C12.6169 16.3098 13.1987 16.0684 13.8125 15.98V17.0547ZM12.8794 21.8718C13.1628 22.0592 13.4796 22.1902 13.8125 22.2579V23.3325C13.1987 23.2441 12.617 23.0026 12.121 22.6302L12.8794 21.8718ZM14.875 22.2578C15.2078 22.1899 15.5243 22.0586 15.8075 21.8712L16.5666 22.6303C16.0706 23.0026 15.4889 23.2441 14.875 23.3325V22.2578Z"/>
<path d="M25.4628 18.5943C25.3931 18.5975 25.3247 18.6145 25.2616 18.6442C25.1984 18.6739 25.1418 18.7157 25.0948 18.7673C25.0478 18.8189 25.0115 18.8793 24.9878 18.9449C24.9642 19.0106 24.9537 19.0802 24.957 19.1499C24.9648 19.3175 24.9689 19.4866 24.9689 19.6562C24.9689 21.7577 24.3458 23.8119 23.1783 25.5592C22.0108 27.3064 20.3514 28.6683 18.41 29.4725C16.4685 30.2766 14.3322 30.4871 12.2711 30.0771C10.2101 29.6672 8.3169 28.6552 6.83096 27.1693C5.34502 25.6834 4.33308 23.7902 3.92309 21.7292C3.5131 19.6681 3.72349 17.5318 4.52765 15.5903C5.33181 13.6489 6.69361 11.9895 8.44087 10.822C10.1881 9.65445 12.2423 9.03128 14.3438 9.03125C14.5134 9.03125 14.6825 9.03539 14.8501 9.0432C14.9904 9.04798 15.127 8.99775 15.2308 8.90322C15.3346 8.80868 15.3974 8.67734 15.4057 8.53719C15.409 8.46749 15.3985 8.39783 15.3749 8.33219C15.3512 8.26654 15.3149 8.2062 15.2679 8.1546C15.2209 8.103 15.1643 8.06116 15.1011 8.03147C15.038 8.00178 14.9696 7.98482 14.8999 7.98155C14.7156 7.97289 14.53 7.96875 14.3438 7.96875C12.0322 7.96875 9.77253 8.65421 7.85053 9.93845C5.92853 11.2227 4.43051 13.048 3.54591 15.1836C2.66131 17.3192 2.42986 19.6692 2.88083 21.9364C3.33179 24.2035 4.44492 26.286 6.07945 27.9206C7.71397 29.5551 9.79648 30.6682 12.0636 31.1192C14.3308 31.5701 16.6808 31.3387 18.8164 30.4541C20.952 29.5695 22.7773 28.0715 24.0616 26.1495C25.3458 24.2275 26.0313 21.9678 26.0313 19.6562C26.0313 19.47 26.0271 19.2844 26.0183 19.1001C26.0152 19.0303 25.9984 18.9619 25.9688 18.8987C25.9391 18.8355 25.8973 18.7787 25.8457 18.7317C25.7941 18.6847 25.7337 18.6484 25.668 18.6248C25.6023 18.6012 25.5325 18.5908 25.4628 18.5943Z"/>
<path d="M30.8125 8.5H29.75C29.4215 8.50101 29.1013 8.60368 28.8335 8.79392C28.5657 8.98416 28.3633 9.25264 28.2542 9.5625H24.4375V5.74584C24.7474 5.6367 25.0158 5.43432 25.2061 5.1665C25.3963 4.89867 25.499 4.57852 25.5 4.25V3.1875C25.5 3.0466 25.444 2.91148 25.3444 2.81185C25.2448 2.71222 25.1096 2.65625 24.9688 2.65625H22.8438C22.7029 2.65625 22.5677 2.71222 22.4681 2.81185C22.3685 2.91148 22.3125 3.0466 22.3125 3.1875V4.25C22.3135 4.57852 22.4162 4.89867 22.6064 5.1665C22.7967 5.43432 23.0651 5.6367 23.375 5.74584V9.5625H19.5583C19.4492 9.25264 19.2468 8.98416 18.979 8.79392C18.7112 8.60368 18.391 8.50101 18.0625 8.5H17C16.8591 8.5 16.724 8.55597 16.6243 8.6556C16.5247 8.75523 16.4688 8.89035 16.4688 9.03125V11.1562C16.4688 11.2971 16.5247 11.4323 16.6243 11.5319C16.724 11.6315 16.8591 11.6875 17 11.6875H18.0625C18.391 11.6865 18.7112 11.5838 18.979 11.3936C19.2468 11.2033 19.4492 10.9349 19.5583 10.625H23.375V14.4417C23.0651 14.5508 22.7967 14.7532 22.6064 15.021C22.4162 15.2888 22.3135 15.609 22.3125 15.9375V17C22.3125 17.1409 22.3685 17.276 22.4681 17.3757C22.5677 17.4753 22.7029 17.5312 22.8438 17.5312H24.9688C25.1096 17.5312 25.2448 17.4753 25.3444 17.3757C25.444 17.276 25.5 17.1409 25.5 17V15.9375C25.499 15.609 25.3963 15.2888 25.2061 15.021C25.0158 14.7532 24.7474 14.5508 24.4375 14.4417V10.625H28.2542C28.3633 10.9349 28.5657 11.2033 28.8335 11.3936C29.1013 11.5838 29.4215 11.6865 29.75 11.6875H30.8125C30.9534 11.6875 31.0885 11.6315 31.1882 11.5319C31.2878 11.4323 31.3438 11.2971 31.3438 11.1562V9.03125C31.3438 8.89035 31.2878 8.75523 31.1882 8.6556C31.0885 8.55597 30.9534 8.5 30.8125 8.5ZM23.375 3.71875H24.4375V4.25C24.4375 4.3909 24.3815 4.52602 24.2819 4.62565C24.1823 4.72528 24.0471 4.78125 23.9062 4.78125C23.7654 4.78125 23.6302 4.72528 23.5306 4.62565C23.431 4.52602 23.375 4.3909 23.375 4.25V3.71875ZM18.0625 10.625H17.5312V9.5625H18.0625C18.2034 9.5625 18.3385 9.61847 18.4382 9.7181C18.5378 9.81773 18.5938 9.95285 18.5938 10.0938C18.5938 10.2346 18.5378 10.3698 18.4382 10.4694C18.3385 10.569 18.2034 10.625 18.0625 10.625ZM24.4375 16.4688H23.375V15.9375C23.375 15.7966 23.431 15.6615 23.5306 15.5618C23.6302 15.4622 23.7654 15.4062 23.9062 15.4062C24.0471 15.4062 24.1823 15.4622 24.2819 15.5618C24.3815 15.6615 24.4375 15.7966 24.4375 15.9375V16.4688ZM30.2812 10.625H29.75C29.6091 10.625 29.474 10.569 29.3743 10.4694C29.2747 10.3698 29.2188 10.2346 29.2188 10.0938C29.2188 9.95285 29.2747 9.81773 29.3743 9.7181C29.474 9.61847 29.6091 9.5625 29.75 9.5625H30.2812V10.625Z"/>
</svg>
