<svg width="40" height="40" viewBox="0 0 40 40" fill="none" xmlns="http://www.w3.org/2000/svg">
<path d="M40 9.86412H35.2581C34.7461 8.04555 33.0737 6.70822 31.0937 6.70822H30.642C30.1447 5.57081 29.0092 4.77366 27.6905 4.77366H25.8758V3.36865H7.49339C3.36151 3.36865 0 6.73016 0 10.862C0 14.8953 3.20265 18.1946 7.19863 18.3498L4.81624 29.9181H2.73929C1.39064 29.9181 0.29335 31.0153 0.29335 32.364V36.6313H21.1354V33.4568C21.1354 31.5055 19.548 29.9181 17.5967 29.9181H16.1309L17.4276 23.6212H19.4442C20.9649 23.6212 22.2023 22.384 22.2023 20.8631V18.3555H25.8758V16.9505H27.6905C28.871 16.9505 29.9045 16.3116 30.465 15.3617H31.0937C33.0737 15.3617 34.7462 14.0243 35.2581 12.2058H40V9.86412ZM17.5967 32.2599C18.2567 32.2599 18.7936 32.7968 18.7936 33.4568V34.2895H2.63516V32.364C2.63516 32.3066 2.68191 32.2599 2.73929 32.2599H6.72489L10.0706 16.0137H7.49339C5.05565 16.0137 3.00938 14.3111 2.47763 12.0329H12.9379V9.69114H2.47763C3.00938 7.41303 5.05565 5.71038 7.49339 5.71038H23.5339V16.0137H16.6033L13.2576 32.2599H17.5967ZM19.8605 20.8631C19.8605 21.0926 19.6737 21.2794 19.4442 21.2794H17.9099L18.5121 18.3555H19.8605V20.8631ZM27.6904 14.6087H25.8757V7.11546H27.6904C28.1747 7.11546 28.5685 7.50936 28.5685 7.99356V13.7307C28.5685 14.2148 28.1747 14.6087 27.6904 14.6087ZM31.0936 13.02H30.9104V9.05003H31.0936C32.1881 9.05003 33.0786 9.94054 33.0786 11.035C33.0786 12.1295 32.1882 13.02 31.0936 13.02Z" fill="white"/>
</svg>
