<svg width="36" height="31" viewBox="0 0 36 31" fill="none" xmlns="http://www.w3.org/2000/svg">
<g clip-path="url(#clip0)">
<path d="M9.87568 23.5H6.88686C6.4744 23.5 6.13965 23.164 6.13965 22.75C6.13965 22.336 6.4744 22 6.88686 22H9.87568C10.2881 22 10.6229 22.336 10.6229 22.75C10.6229 23.164 10.2881 23.5 9.87568 23.5Z" fill="white"/>
<path d="M34.16 23.5H32.2919C31.8795 23.5 31.5447 23.164 31.5447 22.75C31.5447 22.336 31.8795 22 32.2919 22H33.5398L34.547 16.612C34.5336 13.855 32.1873 11.5 29.3031 11.5H24.397L22.0193 22H26.3143C26.7267 22 27.0615 22.336 27.0615 22.75C27.0615 23.164 26.7267 23.5 26.3143 23.5H21.0838C20.8567 23.5 20.6415 23.3965 20.4995 23.218C20.3576 23.041 20.3038 22.807 20.3546 22.585L23.0714 10.585C23.1491 10.2415 23.451 10 23.8007 10H29.3031C33.0107 10 36.028 13.0285 36.028 16.75L34.8937 22.888C34.828 23.2435 34.5201 23.5 34.16 23.5Z" fill="white"/>
<path d="M29.303 26.5C27.2437 26.5 25.567 24.8185 25.567 22.75C25.567 20.6815 27.2437 19 29.303 19C31.3623 19 33.0391 20.6815 33.0391 22.75C33.0391 24.8185 31.3623 26.5 29.303 26.5ZM29.303 20.5C28.0672 20.5 27.0614 21.5095 27.0614 22.75C27.0614 23.9905 28.0672 25 29.303 25C30.5389 25 31.5447 23.9905 31.5447 22.75C31.5447 21.5095 30.5389 20.5 29.303 20.5Z" fill="white"/>
<path d="M12.8645 26.5C10.8052 26.5 9.12848 24.8185 9.12848 22.75C9.12848 20.6815 10.8052 19 12.8645 19C14.9238 19 16.6005 20.6815 16.6005 22.75C16.6005 24.8185 14.9238 26.5 12.8645 26.5ZM12.8645 20.5C11.6286 20.5 10.6229 21.5095 10.6229 22.75C10.6229 23.9905 11.6286 25 12.8645 25C14.1004 25 15.1061 23.9905 15.1061 22.75C15.1061 21.5095 14.1004 20.5 12.8645 20.5Z" fill="white"/>
<path d="M9.87568 10H3.89802C3.48557 10 3.15082 9.664 3.15082 9.25C3.15082 8.836 3.48557 8.5 3.89802 8.5H9.87568C10.2881 8.5 10.6229 8.836 10.6229 9.25C10.6229 9.664 10.2881 10 9.87568 10Z" fill="white"/>
<path d="M9.87565 14.5H2.40358C1.99112 14.5 1.65637 14.164 1.65637 13.75C1.65637 13.336 1.99112 13 2.40358 13H9.87565C10.2881 13 10.6229 13.336 10.6229 13.75C10.6229 14.164 10.2881 14.5 9.87565 14.5Z" fill="white"/>
<path d="M9.87568 19H0.909194C0.496736 19 0.161987 18.664 0.161987 18.25C0.161987 17.836 0.496736 17.5 0.909194 17.5H9.87568C10.2881 17.5 10.6229 17.836 10.6229 18.25C10.6229 18.664 10.2881 19 9.87568 19Z" fill="white"/>
<path d="M21.0838 23.5H15.8533C15.4409 23.5 15.1061 23.164 15.1061 22.75C15.1061 22.336 15.4409 22 15.8533 22H20.4875L23.8828 7H6.88686C6.4744 7 6.13965 6.664 6.13965 6.25C6.13965 5.836 6.4744 5.5 6.88686 5.5H24.8198C25.047 5.5 25.2622 5.6035 25.4041 5.782C25.5461 5.959 25.5999 6.193 25.5491 6.415L21.8131 22.915C21.7353 23.2585 21.432 23.5 21.0838 23.5Z" fill="white"/>
</g>
<defs>
<clipPath id="clip0">
<rect width="36" height="31" fill="white"/>
</clipPath>
</defs>
</svg>
