<svg width="17" height="17" viewBox="0 0 17 17" fill="none" xmlns="http://www.w3.org/2000/svg">
<g clip-path="url(#clip0)">
<path d="M8.50002 1.48619e-06C3.79787 6.64042e-07 -6.64042e-07 3.79787 -1.48619e-06 8.50002C-2.30834e-06 13.2022 3.79787 17 8.50001 17C13.2022 17 17 13.2022 17 8.50002C17 3.79788 13.2021 2.30833e-06 8.50002 1.48619e-06ZM8.50001 15.5894C4.59363 15.5894 1.41064 12.4064 1.41064 8.49998C1.41064 4.5936 4.59363 1.41064 8.50002 1.41064C12.4064 1.41064 15.5894 4.59363 15.5894 8.50002C15.5894 12.4064 12.4064 15.5894 8.50001 15.5894Z" fill="#0A79C8"/>
<path d="M8.53592 6.51074C8.13806 6.51074 7.81253 6.83627 7.81253 7.23414L7.81253 13.0937C7.81253 13.4916 8.13806 13.8171 8.53592 13.8171C8.93379 13.8171 9.25932 13.4916 9.25932 13.1299L9.25932 7.23417C9.25935 6.83627 8.93382 6.51074 8.53592 6.51074Z" fill="#0A79C8"/>
<path d="M8.46332 3.14648C8.06546 3.14648 7.73993 3.47202 7.73993 3.86988L7.73993 4.55712C7.73993 4.95498 8.06546 5.28052 8.46332 5.28052C8.86118 5.28052 9.15057 4.95498 9.18671 4.55712L9.18671 3.86988C9.18672 3.47202 8.86118 3.14648 8.46332 3.14648Z" fill="#0A79C8"/>
</g>
<defs>
<clipPath id="clip0">
<rect width="17" height="17" fill="white"/>
</clipPath>
</defs>
</svg>
