<svg width="31" height="30" viewBox="0 0 31 30" fill="none" xmlns="http://www.w3.org/2000/svg">
<path d="M11.7623 8.26708H27.3401L18.8306 14.9744C18.6503 15.1164 18.4357 15.1857 18.2411 15.2047C18.0452 15.1854 17.83 15.1161 17.6477 14.9744L11.5664 10.1794C11.502 10.1274 11.4292 10.0877 11.3492 10.0631C11.6355 9.65775 11.7989 9.16741 11.7902 8.63908C11.7886 8.51808 11.7779 8.39342 11.7623 8.26708V8.26708ZM7.80081 3.95341C7.8204 3.95675 7.85261 3.96908 7.92269 4.00175C8.06117 4.06775 8.28134 4.23775 8.49687 4.47475C8.93092 4.94941 9.36463 5.66841 9.58979 6.14308C9.59676 6.15708 9.60407 6.17241 9.61071 6.18808C10.2497 7.28841 10.5253 8.13008 10.5336 8.65808C10.5426 9.18842 10.4008 9.41675 9.95276 9.67508L8.79708 10.3437C8.04423 10.7787 7.68856 11.5584 7.60022 12.2857C7.51156 13.0134 7.64207 13.7204 7.96453 14.2794L10.8172 19.2144C11.1403 19.7731 11.6919 20.2404 12.3664 20.5274C13.0416 20.8151 13.8954 20.8964 14.6482 20.4624L15.8039 19.7951C16.2515 19.5374 16.5222 19.5321 16.9768 19.8034C17.4328 20.0754 18.0249 20.7324 18.6612 21.8334C18.6702 21.8497 18.6788 21.8634 18.6891 21.8791C18.9873 22.3107 19.3935 23.0431 19.5894 23.6564C19.6867 23.9611 19.7249 24.2364 19.7126 24.3887C19.699 24.5417 19.6957 24.5261 19.6555 24.5501L18.7761 25.0561C16.567 26.0177 14.5423 25.8007 12.7327 24.8587C10.9198 23.9127 9.34404 22.2044 8.24548 20.1987C8.24183 20.1947 8.24016 20.1897 8.23718 20.1871L5.83084 16.0244C5.82685 16.0204 5.82519 16.0167 5.82187 16.0114C4.63132 14.0581 3.93758 11.8404 4.02459 9.80008C4.1116 7.76275 4.93519 5.90541 6.87527 4.47641L7.75498 3.97208C7.77524 3.96041 7.78188 3.95141 7.80081 3.95341V3.95341ZM7.80977 2.71308C7.57698 2.70941 7.33953 2.75841 7.126 2.88275L6.19581 3.41975C6.17489 3.43175 6.15562 3.44408 6.13669 3.45608C3.89873 5.10008 2.86825 7.38875 2.76762 9.74775C2.667 12.1057 3.4514 14.5394 4.74722 16.6671L7.14559 20.8154L7.13994 20.8031C8.33714 22.9867 10.0527 24.8811 12.1492 25.9724C14.2467 27.0654 16.7454 27.3187 19.2905 26.2047C19.3114 26.1957 19.3327 26.1857 19.3516 26.1741L20.2831 25.6371C20.7139 25.3911 20.9304 24.9124 20.9656 24.4944C21.0018 24.0777 20.9171 23.6721 20.7886 23.2724C20.5369 22.4821 20.0978 21.7144 19.7352 21.1877C19.0501 20.0047 18.3886 19.1837 17.6241 18.7247C16.8536 18.2637 15.9288 18.2704 15.1742 18.7057L14.0186 19.3744C13.6772 19.5717 13.278 19.5487 12.8579 19.3704C12.4398 19.1921 12.0526 18.8354 11.9088 18.5854L9.05611 13.6507C8.91199 13.3994 8.79409 12.8867 8.84989 12.4347C8.90368 11.9841 9.086 11.6311 9.42773 11.4334L10.5505 10.7854C10.5798 10.9364 10.6648 11.0734 10.788 11.1654L16.8696 15.9614C17.2651 16.2734 17.7337 16.4471 18.2056 16.4744C18.2295 16.4757 18.2541 16.4757 18.2783 16.4744C18.7505 16.4471 19.2168 16.2731 19.6127 15.9614L27.9887 9.35675V20.2681C27.9887 20.4341 27.8 20.6527 27.4301 20.6527H21.6314C21.2824 20.6507 20.9998 20.9334 20.9998 21.2817C20.9998 21.6294 21.2827 21.9121 21.6314 21.9101H27.4301C28.3779 21.9101 29.249 21.2224 29.249 20.2681V8.65175C29.249 7.69675 28.3779 7.00941 27.4301 7.00941H11.4173C11.24 6.56441 11.0058 6.09275 10.7109 5.58008C10.435 5.00341 9.9873 4.24108 9.42706 3.62808C9.14412 3.31741 8.83893 3.04208 8.45735 2.86408V2.86575C8.26773 2.77575 8.04224 2.71808 7.80977 2.71308V2.71308Z" fill="white"/>
</svg>
