<svg width="36" height="35" viewBox="0 0 36 35" fill="none" xmlns="http://www.w3.org/2000/svg">
<g clip-path="url(#clip0)">
<path d="M34.6863 7.57038L21.1057 0.0852909C20.9017 -0.0271282 20.6543 -0.0271282 20.4502 0.0852909L15.3315 2.90645C15.2234 2.93502 15.1226 2.9895 15.0391 3.06774L6.86997 7.57038C6.65208 7.69027 6.51667 7.91992 6.51667 8.16959V17.2224C5.13861 17.655 3.87575 18.4179 2.82571 19.4721C0.0887489 22.2191 -0.609059 26.4087 1.0893 29.8975C1.25425 30.2366 1.66208 30.3773 1.99994 30.2115C2.33807 30.0457 2.478 29.6363 2.31306 29.2972C0.870092 26.3329 1.46308 22.7731 3.78876 20.4388C5.24317 18.9789 7.1767 18.1749 9.23342 18.1749C11.2901 18.1749 13.2237 18.9789 14.6781 20.4388C16.1322 21.8983 16.9332 23.8391 16.9332 25.9035C16.9332 27.9679 16.1322 29.9087 14.6778 31.3685C12.3521 33.7029 8.80563 34.2981 5.85238 32.8497C5.51452 32.6839 5.10669 32.8246 4.94175 33.1638C4.77654 33.5032 4.91648 33.9125 5.2546 34.0781C6.52066 34.6992 7.87903 35.0009 9.22756 35.0009C11.5801 35.0007 13.9013 34.0815 15.6411 32.3352C16.439 31.5344 17.0695 30.6104 17.5156 29.6061L20.4502 31.2235C20.5524 31.2799 20.6652 31.3079 20.778 31.3079C20.8908 31.3079 21.0038 31.2799 21.1057 31.2235L34.6863 23.7387C34.9041 23.6186 35.0395 23.3889 35.0395 23.1395V18.3888C35.0395 18.0112 34.7347 17.7052 34.3585 17.7052C33.9823 17.7052 33.6775 18.0112 33.6775 18.3888V22.735L21.4612 29.4681V16.0579L25.4929 13.8357V17.3583C25.4929 17.6003 25.6201 17.824 25.8273 17.9469C25.9343 18.0101 26.054 18.0419 26.174 18.0419C26.2868 18.0419 26.3998 18.0139 26.5022 17.9573L29.4124 16.3495C29.63 16.2293 29.7649 15.9999 29.7649 15.7508V11.481L33.6775 9.32476V12.9203C33.6775 13.2979 33.9823 13.6039 34.3585 13.6039C34.7347 13.6039 35.0395 13.2979 35.0395 12.9203V8.16959C35.0395 7.92019 34.9041 7.69027 34.6863 7.57038V7.57038ZM20.778 1.46423L32.9435 8.16959L29.1059 10.2847L16.9404 3.57936L20.778 1.46423ZM20.778 14.8747L8.61249 8.16959L12.5908 5.97675L24.7565 12.6818L20.778 14.8747ZM26.1713 11.9021L14.0058 5.19703L15.5254 4.35936L27.6911 11.0645L26.1713 11.9021ZM15.6411 19.4721C13.9295 17.7541 11.6538 16.808 9.23342 16.808C8.77557 16.808 8.32331 16.8419 7.87877 16.9084V9.32476L20.0993 16.0603V29.4705L17.9782 28.3014C18.1871 27.5297 18.2951 26.7249 18.2951 25.9035C18.2951 23.4741 17.3525 21.1899 15.6411 19.4721V19.4721ZM28.4031 15.3468L26.855 16.2021V13.0851L28.4031 12.2319V15.3468Z" fill="white"/>
<path d="M34.358 14.9668C34.179 14.9668 34.0031 15.04 33.8765 15.1671C33.7498 15.2942 33.6769 15.4704 33.6769 15.6504C33.6769 15.8301 33.7498 16.0063 33.8765 16.1334C34.0031 16.2608 34.179 16.3337 34.358 16.3337C34.537 16.3337 34.7129 16.2608 34.8395 16.1334C34.9661 16.0063 35.039 15.8301 35.039 15.6504C35.039 15.4704 34.9661 15.2942 34.8395 15.1671C34.7129 15.04 34.537 14.9668 34.358 14.9668Z" fill="white"/>
<path d="M6.94305 26.5862C7.1173 26.5862 7.29182 26.5195 7.42457 26.3862C7.69061 26.1192 7.69061 25.6864 7.42457 25.4193L6.95289 24.9456H10.978C11.9543 24.9456 12.7487 25.743 12.7487 26.723C12.7487 27.703 11.9543 28.5003 10.978 28.5003H8.59299C8.21682 28.5003 7.91195 28.8063 7.91195 29.1839C7.91195 29.5612 8.21682 29.8672 8.59299 29.8672H10.978C12.7054 29.8672 14.1108 28.4568 14.1108 26.723C14.1108 24.9891 12.7054 23.5787 10.978 23.5787H6.95289L7.42457 23.105C7.69061 22.8379 7.69061 22.4051 7.42457 22.1381C7.1588 21.8713 6.72756 21.8713 6.46153 22.1381L4.82701 23.7787C4.56124 24.0457 4.56124 24.4786 4.82701 24.7456L6.46153 26.386C6.59454 26.5195 6.7688 26.5862 6.94305 26.5862V26.5862Z" fill="white"/>
<path d="M3.30733 32.5356C3.11365 32.5356 2.92131 32.4528 2.78696 32.2924L2.78563 32.2907C2.54354 32.0018 2.58079 31.5708 2.86864 31.3278C3.15648 31.0846 3.58613 31.122 3.82822 31.4109C4.07005 31.7001 4.0336 32.1319 3.74575 32.3749C3.61779 32.4827 3.46216 32.5356 3.30733 32.5356Z" fill="white"/>
</g>
<defs>
<clipPath id="clip0">
<rect width="34.8696" height="35" fill="white" transform="translate(0.169434)"/>
</clipPath>
</defs>
</svg>
