<svg width="33" height="32" viewBox="0 0 33 32" fill="none" xmlns="http://www.w3.org/2000/svg">
<g clip-path="url(#clip0)">
<path d="M27.3935 15.76C27.0269 15.76 26.7293 15.4613 26.7293 15.0933V3.33333C26.7293 2.23067 25.8354 1.33333 24.7368 1.33333H7.46801C6.36945 1.33333 5.47546 2.23067 5.47546 3.33333V15.0933C5.47546 15.4613 5.17791 15.76 4.81128 15.76C4.44465 15.76 4.14709 15.4627 4.14709 15.0933V3.33333C4.14709 1.49467 5.63619 0 7.46801 0H24.7368C26.5686 0 28.0577 1.49467 28.0577 3.33333V15.0933C28.0577 15.4627 27.7602 15.76 27.3935 15.76Z" fill="white"/>
<path d="M16.1025 21.3253C15.5751 21.3253 15.0477 21.1986 14.5669 20.9479L0.519391 13.5906C0.193941 13.4199 0.0677464 13.0173 0.237777 12.6906C0.407809 12.3639 0.810304 12.2413 1.13443 12.4079L15.1819 19.7653C15.7584 20.0679 16.4478 20.0679 17.0244 19.7653L31.0718 12.4079C31.396 12.2413 31.7998 12.3626 31.9685 12.6906C32.1385 13.0173 32.0123 13.4199 31.6869 13.5906L17.6394 20.9479C17.1572 21.1986 16.6285 21.3253 16.1025 21.3253V21.3253Z" fill="white"/>
<path d="M29.3861 30.6666H2.81872C1.35353 30.6666 0.161987 29.4706 0.161987 28V11.2133C0.161987 10.216 0.710603 9.30929 1.5953 8.84929L4.50442 7.32929C4.82721 7.16262 5.23104 7.28396 5.39974 7.61329C5.56977 7.93996 5.44358 8.34262 5.1168 8.51196L2.20767 10.032C1.76533 10.2626 1.49035 10.7146 1.49035 11.2133V28C1.49035 28.736 2.08546 29.3333 2.81872 29.3333H29.3861C30.1193 29.3333 30.7144 28.736 30.7144 28V11.2133C30.7144 10.7146 30.4395 10.2626 29.9971 10.0306L27.088 8.51062C26.7625 8.34129 26.635 7.93862 26.8051 7.61196C26.9751 7.28396 27.3802 7.16262 27.7004 7.32796L30.6095 8.84796C31.4942 9.30929 32.0428 10.216 32.0428 11.2133V28C32.0428 29.4706 30.8513 30.6666 29.3861 30.6666Z" fill="white"/>
<path d="M23.4084 14.7652C23.3487 14.7652 23.2889 14.7572 23.2291 14.7398L8.61706 10.6412C8.33013 10.5612 8.1322 10.2998 8.1322 9.99984V7.33317C8.1322 7.03184 8.33279 6.76917 8.62104 6.6905L23.2331 2.6905C23.4363 2.63717 23.6475 2.6785 23.8123 2.80384C23.977 2.92917 24.0726 3.12517 24.0726 3.33317V14.0985C24.0726 14.3065 23.9756 14.5038 23.8109 14.6292C23.6927 14.7185 23.5519 14.7652 23.4084 14.7652ZM9.46057 9.49317L22.7442 13.2198V4.20517L9.46057 7.8425V9.49317Z" fill="white"/>
<path d="M23.4083 15.3333C23.0417 15.3333 22.7441 15.0347 22.7441 14.6667V2.66667C22.7441 2.29867 23.0417 2 23.4083 2C23.7749 2 24.0725 2.29867 24.0725 2.66667V14.6667C24.0725 15.0347 23.7749 15.3333 23.4083 15.3333Z" fill="white"/>
<path d="M8.79639 11.3333C8.42976 11.3333 8.1322 11.0347 8.1322 10.6667V6.66667C8.1322 6.29867 8.42976 6 8.79639 6C9.16302 6 9.46057 6.29867 9.46057 6.66667V10.6667C9.46057 11.0347 9.16302 11.3333 8.79639 11.3333Z" fill="white"/>
<path d="M13.4456 15.3998C11.9804 15.3998 10.7889 14.2038 10.7889 12.7332C10.7889 11.7758 11.2963 10.8985 12.1133 10.4425C12.4321 10.2678 12.8385 10.3798 13.0179 10.7012C13.1959 11.0238 13.0803 11.4292 12.7602 11.6092C12.3577 11.8332 12.1172 12.2518 12.1172 12.7332C12.1172 13.4692 12.7124 14.0665 13.4456 14.0665C14.1789 14.0665 14.774 13.4692 14.774 12.7332C14.774 12.4985 14.7248 12.3052 14.6212 12.1398C14.4273 11.8278 14.5229 11.4158 14.8338 11.2212C15.1419 11.0292 15.5537 11.1225 15.749 11.4345C15.9828 11.8105 16.1023 12.2492 16.1023 12.7332C16.1023 14.2025 14.9108 15.3998 13.4456 15.3998Z" fill="white"/>
</g>
<defs>
<clipPath id="clip0">
<rect width="31.8808" height="32" fill="white" transform="translate(0.161987)"/>
</clipPath>
</defs>
</svg>
