<svg width="25" height="25" viewBox="0 0 25 25" fill="none" xmlns="http://www.w3.org/2000/svg">
<path d="M20.6039 4.11729C18.9525 2.46132 16.849 1.33396 14.5593 0.877706C12.2697 0.421452 9.8967 0.656792 7.74028 1.55398C5.58386 2.45116 3.74085 3.96991 2.44421 5.91825C1.14757 7.86659 0.455505 10.157 0.455505 12.5001C0.455505 14.8432 1.14757 17.1336 2.44421 19.082C3.74085 21.0303 5.58386 22.549 7.74028 23.4462C9.8967 24.3434 12.2697 24.5788 14.5593 24.1225C16.849 23.6662 18.9525 22.5389 20.6039 20.8829C22.8148 18.6575 24.0563 15.6429 24.0563 12.5001C24.0563 9.3573 22.8148 6.34273 20.6039 4.11729V4.11729ZM19.3263 19.6006C17.927 21.0042 16.1445 21.9598 14.2041 22.3467C12.2637 22.7335 10.2527 22.5343 8.42511 21.7741C6.59755 21.0139 5.03558 19.7268 3.93666 18.0757C2.83773 16.4246 2.25119 14.4835 2.25119 12.4978C2.25119 10.5122 2.83773 8.57107 3.93666 6.91995C5.03558 5.26883 6.59755 3.98181 8.42511 3.22161C10.2527 2.4614 12.2637 2.26214 14.2041 2.64901C16.1445 3.03588 17.927 3.99152 19.3263 5.3951C21.2006 7.28017 22.2533 9.83461 22.2533 12.4978C22.2533 15.1611 21.2006 17.7155 19.3263 19.6006Z" fill="white"/>
<path d="M12.2523 8.42188C12.0128 8.42188 11.7832 8.51735 11.6139 8.68731C11.4446 8.85726 11.3494 9.08777 11.3494 9.32812V18.9933C11.3494 19.2336 11.4446 19.4641 11.6139 19.6341C11.7832 19.8041 12.0128 19.8995 12.2523 19.8995C12.4918 19.8995 12.7214 19.8041 12.8907 19.6341C13.0601 19.4641 13.1552 19.2336 13.1552 18.9933V9.32812C13.1552 9.08777 13.0601 8.85726 12.8907 8.68731C12.7214 8.51735 12.4918 8.42188 12.2523 8.42188Z" fill="white"/>
<path d="M12.2523 4.9873C12.0737 4.9873 11.8992 5.04046 11.7507 5.14004C11.6022 5.23962 11.4865 5.38115 11.4182 5.54675C11.3498 5.71235 11.3319 5.89456 11.3668 6.07036C11.4016 6.24616 11.4876 6.40763 11.6139 6.53438C11.7401 6.66112 11.901 6.74743 12.0762 6.7824C12.2513 6.81737 12.4328 6.79942 12.5978 6.73083C12.7628 6.66223 12.9038 6.54608 13.003 6.39705C13.1022 6.24801 13.1552 6.0728 13.1552 5.89356C13.1552 5.6532 13.0601 5.4227 12.8907 5.25274C12.7214 5.08278 12.4918 4.9873 12.2523 4.9873V4.9873Z" fill="white"/>
</svg>
