<svg width="31" height="30" viewBox="0 0 31 30" fill="none" xmlns="http://www.w3.org/2000/svg">
<g clip-path="url(#clip0)">
<path d="M25.1877 11.9906H14.0537C14.5686 11.3966 14.8814 10.6217 14.8814 9.7744C14.8814 7.90977 13.3701 6.39282 11.5124 6.39282C9.65472 6.39282 8.14342 7.90977 8.14342 9.7744C8.14342 10.6217 8.45625 11.3966 8.97105 11.9906H6.31324C4.70716 11.9906 3.40051 13.3022 3.40051 14.9142V18.364C3.40051 18.687 3.66132 18.9488 3.98306 18.9488C4.3048 18.9488 4.5656 18.687 4.5656 18.364V14.9142C4.5656 13.947 5.34959 13.1601 6.31324 13.1601H22.6245C23.5882 13.1601 24.3722 13.947 24.3722 14.9142V18.0717H18.3137C16.7076 18.0717 15.401 19.3833 15.401 20.9954C15.401 22.6074 16.7076 23.919 18.3137 23.919H24.3722V27.0765C24.3722 28.0437 23.5882 28.8307 22.6245 28.8307H6.31324C5.34959 28.8307 4.5656 28.0437 4.5656 27.0765V23.6221C4.5656 23.2991 4.3048 23.0373 3.98306 23.0373C3.66132 23.0373 3.40051 23.2991 3.40051 23.6221V27.0765C3.40051 28.6886 4.70716 30.0001 6.31324 30.0001H25.1877C26.7938 30.0001 28.1005 28.6886 28.1005 27.0765V14.9142C28.1005 13.3022 26.7938 11.9906 25.1877 11.9906ZM11.5124 7.56233C12.7277 7.56233 13.7163 8.55466 13.7163 9.77446C13.7163 10.9942 12.7277 11.9866 11.5124 11.9866C10.2972 11.9866 9.30852 10.9942 9.30852 9.77446C9.30852 8.55466 10.2972 7.56233 11.5124 7.56233ZM24.9531 13.1601H25.1877C26.1514 13.1601 26.9354 13.947 26.9354 14.9142V18.0717H25.5372V14.9142C25.5372 14.2566 25.3197 13.6491 24.9531 13.1601ZM16.566 20.9954C16.566 20.0281 17.35 19.2412 18.3137 19.2412H26.9354V22.7495H18.3137C17.35 22.7495 16.566 21.9626 16.566 20.9954ZM25.1877 28.8307H24.9531C25.3197 28.3417 25.5372 27.7342 25.5372 27.0765V23.919H26.9354V27.0765C26.9354 28.0437 26.1514 28.8307 25.1877 28.8307Z" fill="white"/>
<path d="M18.1646 20.4104C18.0108 20.4104 17.8605 20.473 17.7521 20.5817C17.6438 20.6905 17.582 20.8413 17.582 20.9951C17.582 21.1489 17.6438 21.2998 17.7521 21.4085C17.8611 21.5173 18.0108 21.5798 18.1646 21.5798C18.3178 21.5798 18.4675 21.5173 18.5764 21.4085C18.6848 21.2998 18.7471 21.1489 18.7471 20.9951C18.7471 20.8413 18.6848 20.6905 18.5764 20.5817C18.4681 20.4729 18.3178 20.4104 18.1646 20.4104Z" fill="white"/>
<path d="M19.9885 8.04928C21.8462 8.04928 23.3575 6.53233 23.3575 4.66771C23.3575 2.80314 21.8462 1.28613 19.9885 1.28613C18.1309 1.28613 16.6196 2.80308 16.6196 4.66771C16.6196 6.53233 18.1309 8.04928 19.9885 8.04928ZM19.9885 2.45564C21.2037 2.45564 22.1924 3.44797 22.1924 4.66776C22.1924 5.88756 21.2038 6.87989 19.9885 6.87989C18.7733 6.87989 17.7847 5.88756 17.7847 4.66776C17.7847 3.44797 18.7733 2.45564 19.9885 2.45564V2.45564Z" fill="white"/>
<path d="M14.2989 5.76426C14.6206 5.76426 14.8814 5.50248 14.8814 5.17954V0.584724C14.8814 0.261781 14.6206 0 14.2989 0C13.9771 0 13.7163 0.261781 13.7163 0.584724V5.17954C13.7163 5.50248 13.9771 5.76426 14.2989 5.76426Z" fill="white"/>
<path d="M11.5026 3.74223C11.8243 3.74223 12.0851 3.48045 12.0851 3.15751V0.584724C12.0851 0.261781 11.8243 0 11.5026 0C11.1809 0 10.92 0.261781 10.92 0.584724V3.15751C10.92 3.48045 11.1809 3.74223 11.5026 3.74223Z" fill="white"/>
<path d="M3.98306 21.5798C4.13627 21.5798 4.28656 21.5173 4.39492 21.4085C4.50327 21.2998 4.5656 21.1489 4.5656 20.9951C4.5656 20.8413 4.50327 20.6905 4.39492 20.5817C4.28656 20.473 4.13685 20.4104 3.98306 20.4104C3.82985 20.4104 3.67955 20.473 3.5712 20.5817C3.46285 20.6905 3.40051 20.8413 3.40051 20.9951C3.40051 21.1489 3.46285 21.2998 3.5712 21.4085C3.67955 21.5173 3.82979 21.5798 3.98306 21.5798Z" fill="white"/>
</g>
<defs>
<clipPath id="clip0">
<rect width="29.8883" height="30" fill="white" transform="translate(0.806335)"/>
</clipPath>
</defs>
</svg>
