<svg width="30" height="30" viewBox="0 0 30 30" fill="none" xmlns="http://www.w3.org/2000/svg">
<g clip-path="url(#clip0)">
<path d="M15.8418 29.1207H2.63555C2.23236 29.1207 1.9043 28.7927 1.9043 28.3895V5.61719C1.9043 5.37449 1.70754 5.17773 1.46484 5.17773C1.22215 5.17773 1.02539 5.37449 1.02539 5.61719V28.3895C1.02539 29.2773 1.74773 29.9996 2.63555 29.9996H15.8418C16.0846 29.9996 16.2813 29.8029 16.2813 29.5602C16.2813 29.3175 16.0846 29.1207 15.8418 29.1207Z" fill="#0776FA"/>
<path d="M4.83398 4.62891H10.459C10.7017 4.62891 10.8984 4.43215 10.8984 4.18945C10.8984 3.94676 10.7017 3.75 10.459 3.75H4.83398C4.59129 3.75 4.39453 3.94676 4.39453 4.18945C4.39453 4.43215 4.59129 4.62891 4.83398 4.62891Z" fill="#0776FA"/>
<path d="M10.459 26.0156C10.7017 26.0156 10.8984 25.8189 10.8984 25.5762C10.8984 25.3335 10.7017 25.1367 10.459 25.1367H4.83398C4.59129 25.1367 4.39453 25.3335 4.39453 25.5762C4.39453 25.8189 4.59129 26.0156 4.83398 26.0156H10.459Z" fill="#0776FA"/>
<path d="M28.5885 25.9501L24.0724 21.4339C24.0718 21.4334 24.0712 21.4329 24.0707 21.4323L22.5319 19.893C23.1941 18.9992 23.6872 17.988 23.9773 16.9127C24.3698 15.4577 24.3885 13.9146 24.0309 12.45C23.9734 12.2142 23.7356 12.0699 23.4998 12.1273C23.2641 12.1848 23.1196 12.4226 23.1771 12.6584C23.4995 13.9794 23.4829 15.3714 23.1288 16.6838C22.7638 18.0359 22.0443 19.2773 21.0478 20.2738C17.9067 23.4151 12.7954 23.4151 9.65402 20.2738C6.51275 17.1325 6.51275 12.0213 9.65402 8.88C11.1757 7.35826 13.1989 6.52025 15.3509 6.52025C17.5029 6.52025 19.5261 7.35826 21.0479 8.88C21.6768 9.509 22.1931 10.2287 22.5821 11.0191C22.6893 11.2369 22.9528 11.3267 23.1704 11.2194C23.3882 11.1122 23.4779 10.8488 23.3707 10.631C23.1326 10.1474 22.8503 9.68877 22.5294 9.25676V1.61016C22.5293 0.722344 21.807 0 20.9191 0H2.63555C1.74773 0 1.02539 0.722344 1.02539 1.61016V3.74256C1.02539 3.98525 1.22215 4.18201 1.46484 4.18201C1.70754 4.18201 1.9043 3.98525 1.9043 3.74256V1.61016C1.9043 1.20697 2.23236 0.878906 2.63555 0.878906H20.9191C21.3224 0.878906 21.6504 1.20697 21.6504 1.61016V8.2401C19.9648 6.56426 17.7289 5.64141 15.3509 5.64141C12.9642 5.64141 10.7203 6.57088 9.03258 8.25861C9.01594 8.27525 8.99988 8.2923 8.98342 8.30906H6.17268C5.92998 8.30906 5.73322 8.50582 5.73322 8.74852C5.73322 8.99121 5.92998 9.18797 6.17268 9.18797H8.2234C7.95609 9.541 7.7185 9.90943 7.51061 10.29H4.83398C4.59129 10.29 4.39453 10.4868 4.39453 10.7295C4.39453 10.9721 4.59129 11.1689 4.83398 11.1689H7.09131C6.94313 11.5293 6.81938 11.8975 6.72029 12.2709H4.83398C4.59129 12.2709 4.39453 12.4677 4.39453 12.7104C4.39453 12.9531 4.59129 13.1498 4.83398 13.1498H6.53391C6.09463 15.8867 6.92713 18.79 9.03258 20.8954C10.7746 22.6374 13.0628 23.5084 15.3509 23.5084C17.223 23.5084 19.0951 22.925 20.6681 21.7588L21.6504 22.7409V28.39C21.6504 28.7931 21.3223 29.1212 20.9191 29.1212H17.6951C17.4523 29.1212 17.2556 29.318 17.2556 29.5607C17.2556 29.8034 17.4523 30.0001 17.6951 30.0001H20.9191C21.807 30.0001 22.5293 29.2778 22.5293 28.39V23.6199L26.724 27.8146C26.973 28.0636 27.3041 28.2007 27.6562 28.2007C28.0084 28.2007 28.3395 28.0635 28.5884 27.8146H28.5885C28.8374 27.5655 28.9746 27.2345 28.9746 26.8823C28.9746 26.5301 28.8374 26.199 28.5885 25.9501ZM21.6693 20.8954C21.7731 20.7915 21.8734 20.6845 21.9717 20.576L23.1401 21.7447L22.5188 22.366L21.3507 21.1985C21.4588 21.1005 21.5651 20.9996 21.6693 20.8954ZM27.967 27.193C27.884 27.276 27.7736 27.3217 27.6562 27.3217C27.5389 27.3217 27.4285 27.276 27.3455 27.193L23.1401 22.9877L23.7616 22.3662L27.967 26.5716C28.0499 26.6546 28.0956 26.7649 28.0956 26.8823C28.0957 26.9996 28.05 27.11 27.967 27.193Z" fill="#0776FA"/>
<path d="M10.2752 9.50133C8.92151 10.855 8.17603 12.6575 8.17603 14.5768C8.17603 16.4961 8.92157 18.2985 10.2752 19.6522C11.6745 21.0515 13.5125 21.7512 15.3506 21.7512C17.1886 21.7512 19.0267 21.0516 20.426 19.6522C21.7797 18.2985 22.5252 16.4961 22.5252 14.5768C22.5252 12.6575 21.7797 10.855 20.426 9.50133C17.6274 6.70265 13.0738 6.70271 10.2752 9.50133ZM19.8045 19.0307C18.5765 20.2587 16.9639 20.8727 15.3506 20.8726C13.7378 20.8724 12.1245 20.2585 10.8967 19.0307C9.70896 17.843 9.05487 16.2612 9.05487 14.5767C9.05487 12.8922 9.70896 11.3104 10.8967 10.1228C12.1246 8.89482 13.7376 8.28082 15.3506 8.28082C16.9636 8.28082 18.5766 8.89482 19.8045 10.1228C20.9922 11.3105 21.6463 12.8922 21.6463 14.5767C21.6463 16.2612 20.9922 17.843 19.8045 19.0307Z" fill="#0776FA"/>
</g>
<defs>
<clipPath id="clip0">
<rect width="30" height="30" fill="white"/>
</clipPath>
</defs>
</svg>
