<svg width="20" height="24" viewBox="0 0 20 24" fill="none" xmlns="http://www.w3.org/2000/svg">
<path d="M14.7263 11.5734C15.8224 10.4091 16.5 8.84669 16.5 7.125C16.5 3.54106 13.5839 0.625 10 0.625C6.41606 0.625 3.5 3.54106 3.5 7.125C3.5 8.84669 4.17762 10.4091 5.27369 11.5734C2.02531 13.3861 0.25 17.226 0.25 22.5625C0.25 23.0118 0.614 23.375 1.0625 23.375H18.9375C19.3868 23.375 19.75 23.0118 19.75 22.5625C19.75 17.2252 17.9747 13.3861 14.7263 11.5734ZM10 2.25C12.6886 2.25 14.875 4.43644 14.875 7.125C14.875 9.81356 12.6886 12 10 12C7.31144 12 5.125 9.81356 5.125 7.125C5.125 4.43644 7.31144 2.25 10 2.25ZM1.88963 21.75C2.01719 18.3099 3.01737 14.2807 6.66956 12.6963C7.64456 13.2821 8.78206 13.625 10 13.625C11.2179 13.625 12.3554 13.2821 13.3304 12.6963C16.9818 14.2799 17.9828 18.3099 18.1096 21.75H1.88963Z"/>
</svg>
