<svg viewBox="0 0 384 31" fill="none" xmlns="http://www.w3.org/2000/svg">
<path d="M54.352 -0.00196992H44.392C42.3493 4.82378 37.952 15.1571 31.2 30.998H41.1232C41.3073 31.001 41.4902 30.9651 41.6608 30.8927C44.3712 24.5048 48.7365 14.2467 54.7568 0.118451C54.6404 0.0281175 54.4965 -0.0147019 54.352 -0.00196992ZM38.752 -0.00196992H28.792C26.7493 4.82378 22.352 15.1571 15.6 30.998H25.5248C25.7079 31.0006 25.8896 30.9647 26.0592 30.8927C28.7707 24.5048 33.1365 14.2467 39.1568 0.118451C39.0403 0.0282574 38.8964 -0.0145465 38.752 -0.00196992ZM23.152 -0.00196992H13.192C11.1493 4.82378 6.752 15.1571 0 30.998H9.9232C10.1068 31.0009 10.2891 30.965 10.4592 30.8927C13.1696 24.5048 17.5355 14.2467 23.5568 0.118451C23.4404 0.0281175 23.2965 -0.0147019 23.152 -0.00196992ZM269.062 1.03666C269.494 0.825923 269.71 0.600134 269.709 0.359293C269.709 0.118451 269.479 -0.00196992 269.019 -0.00196992H258.557C258.376 -0.00105831 258.199 0.044809 258.038 0.131831L234.432 11.2975C234.327 11.3334 234.23 11.3921 234.148 11.47C234.066 11.5478 234.001 11.643 233.957 11.7491L232.357 15.4537L232.398 15.7715L241.738 30.7739C241.797 30.8566 241.876 30.9212 241.967 30.9609C242.058 31.0006 242.158 31.014 242.256 30.9997H258.771C259.462 30.9997 259.808 30.7739 259.808 30.3223C259.808 30.232 255.716 23.8748 247.531 11.2507L269.062 1.03666ZM235.728 -0.00196992H220.08C219.877 -0.0237098 219.672 0.0210916 219.494 0.126248C219.316 0.231404 219.173 0.391728 219.086 0.585082C210.585 20.5292 206.334 30.5314 206.333 30.5916C206.333 30.8626 206.519 30.998 206.893 30.998H222.502C222.706 31.0271 222.914 30.9855 223.093 30.8794C223.272 30.7734 223.413 30.6088 223.494 30.411C231.998 10.4668 236.25 0.464661 236.251 0.40445C236.251 0.133504 236.078 -0.00196992 235.731 -0.00196992H235.728Z"/>
<path d="M368.03 4.39975e-05H362.366C362.105 -0.000639804 361.85 0.0777875 361.63 0.225833L344.859 11.8414L337.984 0.225833C337.921 0.148467 337.84 0.0877422 337.75 0.0485306C337.66 0.00931891 337.563 -0.00728746 337.466 4.39975e-05H317.966C317.802 -0.019388 317.635 -0.0037726 317.476 0.0459512C317.317 0.095675 317.169 0.17848 317.042 0.289388C316.992 0.100395 316.776 4.39975e-05 316.368 4.39975e-05H310.706C310.445 -0.000258552 310.189 0.0781377 309.97 0.225833L293.195 11.8414L286.322 0.225833C286.258 0.148259 286.178 0.0873883 286.088 0.0481585C285.998 0.00892865 285.9 -0.00755525 285.803 4.39975e-05H279.373L267.981 5.4056C269.655 8.23772 272.094 12.341 275.298 17.7153C271.667 26.2406 269.851 30.5334 269.85 30.5936C269.85 30.8646 270.037 31 270.413 31H286.021C286.224 31.0209 286.428 30.9757 286.606 30.8707C286.783 30.7656 286.925 30.6057 287.013 30.413L292.549 17.4878L316.584 0.948358C316.696 0.875798 316.799 0.789923 316.891 0.692464C316.965 0.904315 320.32 6.57859 326.958 17.7153C323.326 26.2406 321.51 30.5334 321.51 30.5936C321.51 30.8646 321.698 31 322.074 31H337.678C337.882 31.0216 338.087 30.9768 338.265 30.8717C338.443 30.7666 338.586 30.6063 338.674 30.413L344.206 17.4878L368.245 0.948358C368.563 0.739294 368.723 0.540265 368.723 0.362979C368.723 0.120465 368.49 4.39975e-05 368.03 4.39975e-05ZM198.827 15.7718L188.149 5.33201H207.474C207.678 5.35854 207.886 5.32126 208.07 5.22485C208.255 5.12844 208.408 4.97719 208.51 4.79012L210.283 0.585423C210.311 0.529629 210.326 0.467725 210.326 0.404792C210.326 0.133845 210.139 -0.00162851 209.766 -0.00162851H183.35C181.694 -0.000128775 180.043 0.180913 178.422 0.538593C176.026 1.06916 173.741 2.04949 171.678 3.43204C170.615 4.01396 169.715 4.87322 169.063 5.92644C168.412 6.97966 168.032 8.19105 167.96 9.44304C168.047 10.6043 168.37 11.7328 168.906 12.7536C169.443 13.7745 170.181 14.6642 171.072 15.3637L181.88 25.6664H165.275C166.52 27.7682 167.571 29.5455 168.427 30.9984H185.339C188.901 31.047 192.451 30.5753 195.888 29.5968C200.499 28.212 202.805 25.9981 202.805 22.9553C202.805 20.7554 201.479 18.3603 198.827 15.7702V15.7718ZM145.16 4.39975e-05H140.578C140.315 -0.00930573 140.057 0.0698667 139.842 0.225833L96.1776 30.0517C95.8608 30.2625 95.7024 30.4598 95.7024 30.6371C95.7024 30.8791 95.9333 31 96.3952 31H129.595C129.8 31.0298 130.008 30.9884 130.188 30.8824C130.368 30.7763 130.51 30.6114 130.592 30.413C131.803 27.5809 132.407 26.1342 132.406 26.0728C132.406 25.8052 132.219 25.6681 131.846 25.6681H108.931L130.288 10.8881L142.61 30.7743C142.669 30.8569 142.748 30.9215 142.839 30.9612C142.93 31.0009 143.03 31.0143 143.128 31H162.496C163.187 31 163.533 30.7743 163.533 30.3227C163.533 30.2312 157.596 20.199 145.723 0.225833C145.652 0.145134 145.565 0.0827273 145.467 0.0435413C145.369 0.00435538 145.264 -0.0105358 145.16 4.39975e-05ZM107.421 0.406464C107.421 0.135517 107.247 4.39975e-05 106.901 4.39975e-05H91.2944C91.0845 -0.0255994 90.8722 0.0170081 90.6864 0.122061C90.5006 0.227113 90.3503 0.389501 90.256 0.587096L85.632 11.4333H72.488C75.6016 4.14341 77.1578 0.46779 77.1568 0.406464C77.1568 0.135517 76.9845 4.39975e-05 76.64 4.39975e-05H60.9904C60.7868 -0.0213101 60.5819 0.0236375 60.4038 0.12873C60.2256 0.233823 60.0829 0.393921 59.9952 0.587096C51.4938 20.5312 47.2432 30.5334 47.2432 30.5936C47.2432 30.8646 47.4304 31 47.8048 31H63.4112C63.6156 31.0294 63.8237 30.9878 64.0034 30.8818C64.1831 30.7758 64.3247 30.6111 64.4064 30.413L70.1984 16.8105H83.384C79.4938 25.939 77.5488 30.5334 77.5488 30.5936C77.5488 30.8646 77.7216 31 78.0672 31H90.2432L96.1856 26.9409C103.675 9.31036 107.42 0.46556 107.421 0.406464ZM379.499 3.02227H376.514C376.492 3.02089 376.472 3.02735 376.455 3.04051C376.438 3.05367 376.426 3.07269 376.421 3.09419L374.245 10.5318C374.23 10.582 374.246 10.6054 374.294 10.6054H374.992C375.013 10.6068 375.035 10.6002 375.052 10.5867C375.069 10.5732 375.082 10.5538 375.086 10.5318L375.845 7.93444C375.872 7.8111 375.94 7.70184 376.037 7.62639C376.134 7.55094 376.254 7.51427 376.374 7.523H376.979C377.034 7.51498 377.09 7.51839 377.144 7.53305C377.198 7.5477 377.249 7.57331 377.293 7.60841C377.338 7.64351 377.375 7.68741 377.403 7.73762C377.431 7.78782 377.45 7.84333 377.458 7.90099L377.93 10.5051C377.938 10.5603 377.962 10.5887 377.997 10.5887H378.893C378.93 10.5887 378.949 10.562 378.95 10.5135L378.454 7.87925C378.403 7.64175 378.515 7.48007 378.79 7.39422C379.154 7.28709 379.486 7.08511 379.755 6.80721C380.024 6.52931 380.221 6.18458 380.328 5.80533L380.645 4.72154C380.717 4.52462 380.743 4.31249 380.72 4.10295C380.698 3.89341 380.627 3.69258 380.515 3.51734C380.399 3.35238 380.245 3.22058 380.068 3.13407C379.89 3.04756 379.695 3.00911 379.499 3.02227ZM379.805 4.72154L379.488 5.80533C379.416 6.04455 379.273 6.25365 379.08 6.40242C378.899 6.55697 378.672 6.64301 378.438 6.64661H376.634C376.358 6.64661 376.266 6.50277 376.346 6.21677L376.906 4.31011C376.931 4.18331 376.999 4.07025 377.097 3.99139C377.196 3.91254 377.318 3.87311 377.442 3.88027H379.246C379.344 3.87293 379.441 3.8924 379.528 3.93672C379.616 3.98105 379.691 4.04868 379.746 4.13282C379.798 4.21963 379.831 4.31788 379.841 4.41997C379.851 4.52205 379.839 4.62524 379.805 4.72154Z"/>
<path d="M382.088 1.99865C381.484 1.36506 380.766 0.862351 379.976 0.519338C379.186 0.176325 378.338 -0.000244141 377.482 -0.000244141C376.627 -0.000244141 375.779 0.176325 374.989 0.519338C374.199 0.862351 373.481 1.36506 372.877 1.99865C372.261 2.62056 371.774 3.3678 371.445 4.19423C371.116 5.02067 370.953 5.90879 370.965 6.80377C370.951 7.70167 371.114 8.59294 371.443 9.42256C371.772 10.2522 372.26 11.0025 372.877 11.6273C373.481 12.2609 374.199 12.7636 374.989 13.1066C375.779 13.4496 376.627 13.6262 377.482 13.6262C378.338 13.6262 379.186 13.4496 379.976 13.1066C380.766 12.7636 381.484 12.2609 382.088 11.6273C382.705 11.0025 383.193 10.2521 383.522 9.4225C383.851 8.5929 384.014 7.70166 384 6.80377C384.012 5.90883 383.849 5.0208 383.52 4.19441C383.191 3.36801 382.704 2.62075 382.088 1.99865ZM381.274 10.786C380.266 11.8335 378.903 12.4215 377.482 12.4215C376.061 12.4215 374.697 11.8335 373.69 10.786C373.182 10.2746 372.781 9.65957 372.51 8.97912C372.24 8.29867 372.106 7.56733 372.117 6.83053C372.107 6.09138 372.241 5.3578 372.511 4.67476C372.782 3.99172 373.183 3.37361 373.69 2.85832C374.186 2.33504 374.777 1.9197 375.428 1.63626C376.079 1.35282 376.777 1.20689 377.482 1.20689C378.187 1.20689 378.885 1.35282 379.536 1.63626C380.186 1.9197 380.777 2.33504 381.274 2.85832C381.781 3.37361 382.182 3.99172 382.452 4.67476C382.723 5.3578 382.857 6.09138 382.846 6.83053C382.858 7.56733 382.724 8.29867 382.453 8.97912C382.183 9.65957 381.781 10.2746 381.274 10.786Z"/>
</svg>
