<svg width="48" height="48" viewBox="0 0 48 48" fill="none" xmlns="http://www.w3.org/2000/svg">
<g clip-path="url(#clip0)">
<path d="M30.1283 5.98102C24.8485 3.31307 18.4884 4.33317 14.3024 8.5193C9.4372 13.3844 8.95026 21.1418 13.1698 26.5638C13.3189 26.7554 13.5419 26.8557 13.7672 26.8557C13.9296 26.8557 14.0932 26.8037 14.2313 26.6962C14.561 26.4396 14.6203 25.9643 14.3638 25.6346C10.612 20.8138 11.0456 13.9157 15.3722 9.58899C19.0951 5.86598 24.7508 4.95867 29.4462 7.33121C29.819 7.51983 30.274 7.37002 30.4625 6.99717C30.6508 6.62433 30.5014 6.16936 30.1283 5.98102Z" fill="#0776FA"/>
<path d="M36.1671 12.023C35.9787 11.6501 35.5239 11.5005 35.1508 11.6888C34.778 11.8771 34.6282 12.332 34.8166 12.705C37.1874 17.3996 36.2796 23.0547 32.5577 26.7765C28.2309 31.1031 21.3329 31.5366 16.512 27.785C16.1822 27.5285 15.7071 27.5878 15.4505 27.9174C15.1939 28.2471 15.2533 28.7223 15.583 28.9789C18.0527 30.901 21.0069 31.8464 23.9517 31.8464C27.4717 31.8464 30.9784 30.4953 33.6275 27.8462C37.8127 23.6612 38.8332 17.3023 36.1671 12.023Z" fill="#0776FA"/>
<path d="M34.2133 9.14131C34.0259 8.92925 33.8291 8.71981 33.6282 8.51899C33.4272 8.31809 33.2179 8.12121 33.0058 7.9338C32.6928 7.65705 32.2147 7.68668 31.9382 7.99971C31.6614 8.31265 31.6908 8.79068 32.0038 9.06734C32.1927 9.23421 32.3793 9.40971 32.5584 9.58868C32.7372 9.76775 32.9127 9.95422 33.0797 10.1431C33.2291 10.3122 33.4375 10.3986 33.6468 10.3986C33.8248 10.3986 34.0035 10.3361 34.1474 10.2089C34.4606 9.93237 34.49 9.45434 34.2133 9.14131Z" fill="#0776FA"/>
<path d="M41.8188 19.5385C42.3232 18.711 42.3232 17.6831 41.8187 16.8557L40.8235 15.2238C40.6924 15.0088 40.6417 14.7534 40.6809 14.5048L40.9775 12.6201C41.1287 11.6596 40.7341 10.7078 39.948 10.1358L38.4057 9.014C38.2018 8.86559 38.0568 8.64912 37.9975 8.40406L37.5483 6.5479C37.3203 5.60505 36.5929 4.87774 35.6502 4.64955L33.7939 4.2003C33.5489 4.14096 33.3322 3.99602 33.184 3.79211L32.062 2.24945C31.4901 1.46326 30.5382 1.06848 29.578 1.2198L27.6927 1.51642C27.444 1.55551 27.1886 1.50489 26.9737 1.37383L25.3415 0.378387C24.5141 -0.126176 23.4862 -0.126082 22.6587 0.378387L21.0267 1.37355C20.8119 1.5047 20.5566 1.55514 20.3077 1.51614L18.4229 1.21951C17.4627 1.06839 16.5107 1.46298 15.9388 2.24917L14.817 3.79146C14.6686 3.99536 14.452 4.1403 14.2069 4.19965L12.3507 4.6488C11.4081 4.8768 10.6806 5.60421 10.4524 6.54696L10.0031 8.40322C9.94378 8.64828 9.79894 8.86493 9.59494 9.01315L8.05228 10.1352C7.26609 10.7069 6.87159 11.6587 7.02262 12.6192L7.31925 14.5046C7.35834 14.7533 7.30772 15.0087 7.17666 15.2235L6.18131 16.8558C5.67693 17.6833 5.67693 18.7111 6.1814 19.5385L7.17656 21.1705C7.30762 21.3856 7.35834 21.6409 7.31916 21.8896L7.02253 23.7743C6.87131 24.7347 7.26591 25.6866 8.05209 26.2585L9.59438 27.3803C9.79828 27.5285 9.94322 27.7452 10.0026 27.9903L10.4517 29.8464C10.6797 30.7893 11.4071 31.5166 12.3499 31.7448L13.125 31.9324L7.87931 43.6337C7.76784 43.8824 7.79869 44.1717 7.96022 44.3913C8.12166 44.6109 8.38856 44.7266 8.65931 44.6942L12.8801 44.1895L15.3116 47.6762C15.454 47.8801 15.6862 47.9999 15.9319 47.9999C15.9554 47.9999 15.9792 47.9988 16.0029 47.9966C16.2742 47.9711 16.5109 47.8015 16.6224 47.553L21.9797 35.6018L22.6586 36.0157C23.0723 36.268 23.5361 36.3941 23.9999 36.3941C24.4638 36.3941 24.9276 36.2679 25.3413 36.0157L26.0446 35.5869L31.4087 47.553C31.5202 47.8017 31.7568 47.9711 32.0282 47.9966C32.0519 47.9989 32.0757 48 32.0992 48C32.3449 48 32.5772 47.8802 32.7194 47.6763L35.151 44.1896L39.3718 44.6943C39.6423 44.7264 39.9094 44.6109 40.0709 44.3914C40.2323 44.1718 40.2633 43.8825 40.1518 43.6338L34.9034 31.926L35.6493 31.7455C36.592 31.5175 37.3195 30.7901 37.5477 29.8474L37.9969 27.9911C38.0563 27.746 38.2012 27.5294 38.4051 27.3812L39.9478 26.2592C40.734 25.6874 41.1285 24.7356 40.9774 23.7752L40.6808 21.8897C40.6417 21.641 40.6923 21.3856 40.8234 21.1708L41.8188 19.5385ZM15.7884 45.7151L13.8614 42.9519C13.7017 42.7228 13.4285 42.6002 13.1512 42.6336L9.80625 43.0335L14.5855 32.3719C14.6729 32.4362 14.7513 32.5131 14.8159 32.6021L15.9379 34.1448C16.0445 34.2913 16.1643 34.4241 16.2949 34.5425L13.7793 40.1541C13.6085 40.5353 13.7789 40.9828 14.1601 41.1537C14.2606 41.1988 14.3657 41.2201 14.469 41.2201C14.758 41.2201 15.0339 41.0536 15.1597 40.7729L17.6664 35.1813C17.913 35.2151 18.167 35.2146 18.4219 35.1744L20.3072 34.8778C20.4201 34.8601 20.5342 34.8617 20.6453 34.8801L15.7884 45.7151ZM38.225 43.0333L34.88 42.6336C34.6024 42.6003 34.3295 42.7228 34.1698 42.9519L32.2428 45.7151L27.3838 34.8758C27.4858 34.862 27.5897 34.862 27.6926 34.8781L29.5772 35.1747C29.8424 35.2164 30.1067 35.2151 30.3628 35.177L32.8713 40.7731C32.9972 41.0539 33.273 41.2203 33.562 41.2203C33.6654 41.2203 33.7705 41.199 33.8709 41.1539C34.2521 40.9831 34.4226 40.5354 34.2517 40.1542L31.7265 34.5213C31.8483 34.4082 31.9609 34.2831 32.0613 34.1451L33.1831 32.6028C33.2538 32.5055 33.3405 32.4222 33.4378 32.3548L38.225 43.0333ZM40.5271 18.7508L39.5317 20.3831C39.2144 20.9038 39.0916 21.5223 39.1863 22.1248L39.483 24.0101C39.5453 24.4066 39.3824 24.7995 39.0579 25.0355L37.5151 26.1576C37.0214 26.5169 36.6702 27.0416 36.5265 27.6351L36.0773 29.4914C35.9831 29.8805 35.6829 30.1808 35.2936 30.275L33.4374 30.7242C32.8438 30.8678 32.3189 31.219 31.9597 31.7129L30.8379 33.2552C30.6018 33.5798 30.209 33.7426 29.8124 33.6801L27.9276 33.3835C27.3251 33.2887 26.7064 33.4114 26.1856 33.7289L24.5537 34.724C24.2122 34.9322 23.7877 34.9322 23.4463 34.724L21.8141 33.7288C21.4081 33.4812 20.9427 33.3522 20.4718 33.3522C20.3387 33.3522 20.2049 33.3625 20.0723 33.3834L18.1869 33.68C17.7903 33.7425 17.3975 33.5795 17.1614 33.255L16.0393 31.7123C15.6801 31.2185 15.1554 30.8674 14.5618 30.7237L12.7056 30.2745C12.3164 30.1803 12.0161 29.8801 11.9219 29.4908L11.4728 27.6347C11.3291 27.041 10.978 26.5161 10.4841 26.1569L8.94188 25.035C8.61731 24.7989 8.45447 24.4059 8.51691 24.0094L8.81353 22.1247C8.90831 21.5221 8.78569 20.9036 8.46816 20.3828L7.473 18.7507C7.26478 18.4092 7.26478 17.9848 7.473 17.6433L8.46835 16.011C8.78578 15.4904 8.9085 14.8718 8.81372 14.2694L8.5171 12.384C8.45475 11.9876 8.61769 11.5947 8.94216 11.3586L10.4849 10.2365C10.9787 9.87725 11.3299 9.35253 11.4735 8.759L11.9228 6.90274C12.017 6.51359 12.3172 6.2133 12.7064 6.11909L14.5627 5.66993C15.1563 5.5263 15.6811 5.17512 16.0403 4.68124L17.1621 3.13896C17.3981 2.81439 17.791 2.65136 18.1876 2.71389L20.0724 3.01052C20.675 3.10549 21.2936 2.98267 21.8143 2.66514L23.4462 1.66998C23.7878 1.46186 24.2123 1.46186 24.5536 1.66998L26.1859 2.66524C26.7066 2.98286 27.3253 3.10558 27.9277 3.01071L29.8131 2.71408C30.2095 2.65192 30.6025 2.81467 30.8385 3.13914L31.9606 4.6818C32.3199 5.17558 32.8446 5.52677 33.4381 5.6704L35.2944 6.11965C35.6835 6.21387 35.9838 6.51406 36.078 6.90331L36.5272 8.75947C36.6708 9.35309 37.0219 9.878 37.5159 10.2373L39.0582 11.3591C39.3827 11.5951 39.5456 11.9881 39.4832 12.3846L39.1865 14.2694C39.0917 14.8719 39.2144 15.4904 39.5319 16.0112L40.5271 17.6433C40.7354 17.9849 40.7354 18.4093 40.5271 18.7508Z" fill="#0776FA"/>
<path d="M32.8515 15.8433C32.6848 15.3301 32.2484 14.9718 31.7125 14.9082L27.1608 14.3685L25.241 10.2065C25.015 9.71652 24.5394 9.41211 23.9998 9.41211C23.4602 9.41211 22.9845 9.71652 22.7585 10.2065L20.8387 14.3686L16.287 14.9083C15.7512 14.9719 15.3147 15.3302 15.1481 15.8434C14.9814 16.3563 15.1239 16.9028 15.5199 17.269L18.885 20.3811L17.9918 24.8768C17.8867 25.4061 18.0926 25.9318 18.5292 26.2489C18.77 26.4238 19.0495 26.5124 19.3307 26.5124C19.5594 26.5124 19.7891 26.4539 20.0001 26.3358L23.9997 24.0971L27.9992 26.3358C28.4702 26.5994 29.0337 26.5661 29.4703 26.249C29.9069 25.9318 30.1127 25.406 30.0076 24.8768L29.1143 20.3812L32.4795 17.2691C32.8757 16.9028 33.0182 16.3565 32.8515 15.8433ZM27.7764 19.5579C27.5833 19.7365 27.4968 20.0027 27.548 20.2607L28.4621 24.8611L24.3691 22.5701C24.2544 22.5059 24.1271 22.4738 23.9997 22.4738C23.8723 22.4738 23.745 22.5058 23.6302 22.5701L19.5373 24.8611L20.4513 20.2607C20.5027 20.0026 20.4162 19.7365 20.2229 19.5579L16.7793 16.3732L21.4374 15.821C21.6986 15.79 21.925 15.6255 22.0352 15.3867L23.9998 11.1276L25.9643 15.3867C26.0746 15.6255 26.3009 15.79 26.5621 15.821L31.22 16.3732L27.7764 19.5579Z" fill="#0776FA"/>
</g>
<defs>
<clipPath id="clip0">
<rect width="48" height="48" fill="white"/>
</clipPath>
</defs>
</svg>
