<svg width="12" height="12" viewBox="0 0 12 12" fill="none" xmlns="http://www.w3.org/2000/svg">
<path d="M6.00005 0C2.80204 0 0.737267 3.38897 2.17218 6.22287L4.37462 10.9629C5.01756 12.3467 6.98352 12.3447 7.62551 10.9629L9.82798 6.22282C11.2623 3.39005 9.19951 0 6.00005 0V0ZM9.15268 5.88718C9.14825 5.89585 9.25239 5.67203 6.94166 10.6451C6.56867 11.4478 5.43184 11.4485 5.05849 10.6451C2.75649 5.69078 2.85209 5.89628 2.84752 5.88723C1.67122 3.57316 3.34228 0.754099 6.00005 0.754099C8.65632 0.754099 10.3297 3.57132 9.15268 5.88718Z"/>
<path d="M6.00002 2.19312C4.84481 2.19312 3.90497 3.13296 3.90497 4.28817C3.90497 5.44338 4.84481 6.38322 6.00002 6.38322C7.15523 6.38322 8.09507 5.44338 8.09507 4.28817C8.09507 3.13296 7.15525 2.19312 6.00002 2.19312ZM6.00002 5.62914C5.2606 5.62914 4.65907 5.02761 4.65907 4.28819C4.65907 3.54877 5.2606 2.94724 6.00002 2.94724C6.73944 2.94724 7.34097 3.54877 7.34097 4.28819C7.34097 5.02761 6.73944 5.62914 6.00002 5.62914Z"/>
</svg>
