<svg viewBox="0 0 26 26" fill="none" xmlns="http://www.w3.org/2000/svg">
<path d="M25.2137 23.0955L20.3491 18.2308C21.8234 16.3008 22.632 13.9598 22.6323 11.4895C22.6323 8.51257 21.4729 5.71362 19.3675 3.60864C17.2626 1.50366 14.464 0.344238 11.4867 0.344238C8.50976 0.344238 5.71081 1.50366 3.60583 3.60864C-0.739624 7.95447 -0.739624 15.0253 3.60583 19.3704C5.71081 21.4757 8.50976 22.6351 11.4867 22.6351C13.957 22.6348 16.298 21.8262 18.228 20.3519L23.0926 25.2166C23.3852 25.5095 23.7694 25.656 24.1532 25.656C24.537 25.656 24.9211 25.5095 25.2137 25.2166C25.7997 24.631 25.7997 23.681 25.2137 23.0955ZM5.72693 17.2493C2.55115 14.0735 2.55151 8.90588 5.72693 5.72974C7.26538 4.19165 9.31103 3.34424 11.4867 3.34424C13.6627 3.34424 15.708 4.19165 17.2465 5.72974C18.7849 7.26819 19.6323 9.31384 19.6323 11.4895C19.6323 13.6655 18.7849 15.7108 17.2465 17.2493C15.708 18.7877 13.6627 19.6351 11.4867 19.6351C9.31103 19.6351 7.26538 18.7877 5.72693 17.2493Z"/>
</svg>
