<svg width="19" height="21" viewBox="0 0 19 21" fill="none" xmlns="http://www.w3.org/2000/svg">
<path d="M15.3925 12.9485C14.2333 12.9485 13.1996 13.5009 12.5383 14.3546L7.00154 11.2619C7.13128 10.8894 7.20242 10.4877 7.20242 10.0733C7.20242 9.65485 7.13128 9.25727 6.99736 8.88062L12.53 5.79207C13.187 6.65 14.2249 7.20661 15.3883 7.20661C17.372 7.20661 18.9916 5.59119 18.9916 3.6033C18.9916 1.61542 17.3762 0 15.3883 0C13.4004 0 11.785 1.61542 11.785 3.6033C11.785 4.02181 11.8562 4.42357 11.9901 4.79604L6.46167 7.88458C5.80463 7.02247 4.76674 6.47004 3.6033 6.47004C1.6196 6.47004 0 8.08546 0 10.0733C0 12.0612 1.6196 13.6767 3.60749 13.6767C4.77093 13.6767 5.80881 13.12 6.47004 12.2579L12.0026 15.3507C11.8687 15.7273 11.7934 16.1333 11.7934 16.5518C11.7934 18.5355 13.4088 20.1551 15.3967 20.1551C17.3846 20.1551 19 18.5396 19 16.5518C19 14.5639 17.3804 12.9485 15.3925 12.9485ZM15.3925 1.13414C16.7568 1.13414 17.8659 2.24317 17.8659 3.60749C17.8659 4.97181 16.7568 6.08084 15.3925 6.08084C14.0282 6.08084 12.9192 4.97181 12.9192 3.60749C12.9192 2.24317 14.0324 1.13414 15.3925 1.13414ZM3.60749 12.5467C2.24317 12.5467 1.13414 11.4377 1.13414 10.0733C1.13414 8.70903 2.24317 7.6 3.60749 7.6C4.97181 7.6 6.08084 8.70903 6.08084 10.0733C6.08084 11.4377 4.96762 12.5467 3.60749 12.5467ZM15.3925 19.0209C14.0282 19.0209 12.9192 17.9119 12.9192 16.5476C12.9192 15.1833 14.0282 14.0742 15.3925 14.0742C16.7568 14.0742 17.8659 15.1833 17.8659 16.5476C17.8659 17.9119 16.7568 19.0209 15.3925 19.0209Z" fill="#808080"/>
</svg>
