<svg width="48" height="48" viewBox="0 0 48 48" fill="none" xmlns="http://www.w3.org/2000/svg">
<g clip-path="url(#clip0)">
<path d="M43.724 8.28854C37.1198 6.47898 30.4767 3.66133 24.513 0.140273C24.1963 -0.0467577 23.8032 -0.0467577 23.4865 0.140273C17.3507 3.76249 11.0667 6.4277 4.27498 8.28854C3.83623 8.40863 3.5321 8.80744 3.5321 9.26241V19.5792C3.5321 30.2032 8.43325 37.2356 12.5449 41.2641C16.9714 45.6014 22.1277 48 23.9998 48C25.8717 48 31.0279 45.6014 35.4544 41.2641C39.566 37.2357 44.4668 30.2033 44.4668 19.5792V9.26232C44.4668 8.80744 44.1627 8.40863 43.724 8.28854ZM42.4475 19.5791C42.4475 29.5019 37.8761 36.0639 34.041 39.8216C29.6881 44.0867 25.0341 45.9805 23.9998 45.9805C22.9654 45.9805 18.3111 44.0867 13.9581 39.8216C10.1231 36.0638 5.55157 29.5019 5.55157 19.5791V10.0288C12.0464 8.18476 18.0949 5.61123 23.9999 2.17971C29.7575 5.5202 36.1078 8.2217 42.4475 10.0284V19.5791Z" fill="#0776FA"/>
<path d="M15.0495 9.91629C14.8451 9.39738 14.2589 9.14248 13.7399 9.34695C11.9362 10.0577 10.0848 10.7119 8.23725 11.2914C7.81622 11.4236 7.52972 11.8136 7.52972 12.2548V16.1539C7.52972 16.7116 7.98188 17.1636 8.53941 17.1636C9.09694 17.1636 9.5491 16.7116 9.5491 16.1539V12.9927C11.2065 12.4564 12.8621 11.8633 14.4802 11.2257C14.9991 11.0214 15.254 10.4352 15.0495 9.91629Z" fill="#0776FA"/>
<path d="M16.9678 10.1077C17.1033 10.1077 17.2408 10.0804 17.3727 10.0229L17.3913 10.0148C17.9021 9.79091 18.1322 9.19626 17.9083 8.6856C17.6843 8.17476 17.0862 7.94367 16.576 8.16736L16.5596 8.17439C16.0485 8.39761 15.8177 8.99179 16.0409 9.50273C16.2066 9.88204 16.5783 10.1077 16.9678 10.1077Z" fill="#0776FA"/>
<path d="M36.0291 32.5581C35.5625 32.2531 34.9368 32.3843 34.6315 32.851C33.7994 34.1245 32.8233 35.344 31.7298 36.4753C30.8306 37.4055 29.8561 38.2725 28.8336 39.052C28.3902 39.3901 28.3049 40.0236 28.6429 40.4672C28.8417 40.7277 29.1424 40.8648 29.4465 40.8648C29.6601 40.8648 29.8752 40.7974 30.0581 40.6579C31.161 39.8168 32.212 38.8819 33.1815 37.8789C34.3638 36.6561 35.4204 35.3361 36.3221 33.9556C36.6272 33.4887 36.4959 32.863 36.0291 32.5581Z" fill="#0776FA"/>
<path d="M26.489 40.6355L26.431 40.6697C25.9485 40.9491 25.7836 41.5668 26.063 42.0493C26.2502 42.3727 26.5891 42.5533 26.9378 42.5533C27.1093 42.5533 27.2835 42.5095 27.4426 42.4172L27.5094 42.3779C27.9906 42.0961 28.1523 41.4776 27.8705 40.9964C27.5885 40.5154 26.9699 40.354 26.489 40.6355Z" fill="#0776FA"/>
<path d="M17.1169 21.9388C16.4969 21.3187 15.6724 20.9775 14.7955 20.9775C13.9185 20.9775 13.0939 21.3188 12.4736 21.9388C11.1937 23.219 11.1937 25.3021 12.4736 26.5823L18.4358 32.5442C19.0558 33.1641 19.8804 33.5054 20.7574 33.5054C21.6344 33.5054 22.4589 33.1641 23.0791 32.544L35.5254 20.0976C36.8053 18.8171 36.8053 16.7343 35.5252 15.4545C34.9052 14.8344 34.0806 14.4932 33.2035 14.4932C32.3265 14.4932 31.502 14.8345 30.8818 15.4545L20.7573 25.579L17.1169 21.9388ZM32.3098 16.8825C32.5484 16.6439 32.8659 16.5125 33.2036 16.5125C33.5415 16.5125 33.8587 16.6439 34.0975 16.8825C34.5902 17.3751 34.5902 18.1771 34.0973 18.6699L21.6512 31.1161C21.4126 31.3547 21.0951 31.4861 20.7574 31.4861C20.4197 31.4861 20.1022 31.3547 19.8635 31.1161L13.9016 25.1544C13.4087 24.6615 13.4087 23.8596 13.9014 23.367C14.14 23.1284 14.4576 22.9968 14.7954 22.9968C15.1331 22.9968 15.4505 23.1282 15.6891 23.3668L20.0433 27.7211C20.2328 27.9104 20.4894 28.0168 20.7573 28.0168C21.0251 28.0168 21.2818 27.9104 21.4711 27.7211L32.3098 16.8825Z" fill="#0776FA"/>
</g>
<defs>
<clipPath id="clip0">
<rect width="48" height="48" fill="white"/>
</clipPath>
</defs>
</svg>
