<svg width="48" height="48" viewBox="0 0 48 48" fill="none" xmlns="http://www.w3.org/2000/svg">
<path d="M44.6398 21.6913L43.3968 16.7193C43.7366 16.6471 43.9916 16.3456 43.9916 15.9844V15.1827C43.9916 13.4421 42.5755 12.0261 40.8351 12.0261H35.1733V10.3726C35.1733 9.51609 34.4766 8.81934 33.6201 8.81934H4.75987C3.90337 8.81934 3.20662 9.51609 3.20662 10.3726V24.001C3.20662 24.4161 3.54309 24.7526 3.95822 24.7526C4.37325 24.7526 4.70981 24.4161 4.70981 24.001V10.3726C4.70981 10.3449 4.73222 10.3225 4.75987 10.3225H33.62C33.6476 10.3225 33.67 10.3449 33.67 10.3726V24.0012C33.67 24.4162 34.0065 24.7528 34.4216 24.7528C34.8367 24.7528 35.1732 24.4163 35.1732 24.0012V23.1492H44.0391C44.0398 23.1492 44.0404 23.1494 44.041 23.1494C44.0418 23.1494 44.0424 23.1493 44.0431 23.1493C45.1341 23.1501 46.0604 23.8661 46.3786 24.8528H44.0416C43.6266 24.8528 43.29 25.1893 43.29 25.6044V27.2077C43.29 28.5063 44.3464 29.5626 45.6449 29.5626H46.4967V32.8695H44.5315C43.886 31.0055 42.114 29.6628 40.0332 29.6628C37.9524 29.6628 36.1804 31.0055 35.5349 32.8695H35.173V27.2076C35.173 26.7926 34.8366 26.4561 34.4214 26.4561C34.0064 26.4561 33.6698 26.7925 33.6698 27.2076V32.8693H18.0766C17.431 31.0053 15.6591 29.6626 13.5783 29.6626C11.4975 29.6626 9.72544 31.0053 9.07997 32.8693H4.75987C4.73222 32.8693 4.70981 32.8469 4.70981 32.8192V31.1658H7.96659C8.38162 31.1658 8.71819 30.8293 8.71819 30.4142C8.71819 29.9991 8.38172 29.6626 7.96659 29.6626H0.751594C0.336562 29.6626 0 29.9991 0 30.4142C0 30.8293 0.336469 31.1658 0.751594 31.1658H3.20672V32.8192C3.20672 33.6757 3.90347 34.3725 4.75997 34.3725H8.81972C8.81953 34.3892 8.81841 34.4058 8.81841 34.4226C8.81841 37.0472 10.9537 39.1824 13.5783 39.1824C16.2028 39.1824 18.3382 37.0472 18.3382 34.4226C18.3382 34.4057 18.337 34.3892 18.3368 34.3725H35.2747C35.2745 34.3892 35.2733 34.4058 35.2733 34.4226C35.2733 37.0472 37.4087 39.1824 40.0332 39.1824C42.6577 39.1824 44.7931 37.0472 44.7931 34.4226C44.7931 34.4057 44.792 34.3892 44.7918 34.3725H47.2483C47.6633 34.3725 47.9999 34.036 47.9999 33.6209V25.6042C48 23.625 46.5396 21.9805 44.6398 21.6913ZM35.1733 13.5292H40.8351C41.7468 13.5292 42.4885 14.271 42.4885 15.1827V15.2328H35.1733V13.5292ZM35.1733 21.6461V16.7359H41.8516L43.0792 21.6461H35.1733ZM13.5783 37.6795C11.7825 37.6795 10.3215 36.2186 10.3215 34.4227C10.3215 32.6269 11.7825 31.166 13.5783 31.166C15.3741 31.166 16.8351 32.6269 16.8351 34.4227C16.8351 36.2186 15.3741 37.6795 13.5783 37.6795ZM40.0334 37.6795C38.2376 37.6795 36.7766 36.2186 36.7766 34.4227C36.7766 32.6269 38.2376 31.166 40.0334 31.166C41.8292 31.166 43.2902 32.6269 43.2902 34.4227C43.2902 36.2186 41.8292 37.6795 40.0334 37.6795ZM46.4969 28.0595H45.6451C45.1754 28.0595 44.7933 27.6773 44.7933 27.2076V26.3558H46.4968V28.0595H46.4969Z" fill="#0776FA"/>
<path d="M13.5771 32.8691C12.7206 32.8691 12.0238 33.5659 12.0238 34.4224C12.0238 35.2789 12.7206 35.9756 13.5771 35.9756C14.4336 35.9756 15.1303 35.2789 15.1303 34.4224C15.1303 33.5659 14.4336 32.8691 13.5771 32.8691Z" fill="#0776FA"/>
<path d="M40.0333 32.8691C39.1768 32.8691 38.4801 33.5659 38.4801 34.4224C38.4801 35.2789 39.1768 35.9756 40.0333 35.9756C40.8898 35.9756 41.5866 35.2789 41.5866 34.4224C41.5866 33.5659 40.8898 32.8691 40.0333 32.8691Z" fill="#0776FA"/>
<path d="M31.2164 29.6621H19.9931C19.578 29.6621 19.2415 29.9986 19.2415 30.4137C19.2415 30.8288 19.578 31.1653 19.9931 31.1653H31.2164C31.6315 31.1653 31.968 30.8288 31.968 30.4137C31.968 29.9986 31.6316 29.6621 31.2164 29.6621Z" fill="#0776FA"/>
<path d="M11.9765 26.4551H2.35648C1.94145 26.4551 1.60489 26.7915 1.60489 27.2067C1.60489 27.6218 1.94136 27.9583 2.35648 27.9583H11.9765C12.3916 27.9583 12.7281 27.6218 12.7281 27.2067C12.7281 26.7915 12.3916 26.4551 11.9765 26.4551Z" fill="#0776FA"/>
<path d="M26.1345 16.2533C25.8411 15.9598 25.3651 15.9598 25.0716 16.2534L18.388 22.9369L14.9111 19.46C14.6176 19.1665 14.1417 19.1665 13.8483 19.46C13.5547 19.7535 13.5547 20.2293 13.8483 20.5228L17.8566 24.5312C18.0034 24.678 18.1957 24.7513 18.388 24.7513C18.5803 24.7513 18.7728 24.678 18.9194 24.5312L26.1344 17.3162C26.4279 17.0226 26.4279 16.5468 26.1345 16.2533Z" fill="#0776FA"/>
</svg>
