<svg width="20" height="20" viewBox="0 0 20 20" fill="none" xmlns="http://www.w3.org/2000/svg">
<path d="M6.44379 12.9298H6.4447C6.44547 12.9298 6.44623 12.9297 6.44699 12.9297H17.0703C17.3319 12.9297 17.5618 12.7562 17.6337 12.5047L19.9774 4.30161C20.0279 4.12476 19.9925 3.93463 19.8819 3.78784C19.7711 3.64105 19.5979 3.55469 19.4141 3.55469H5.09247L4.67361 1.66977C4.61395 1.40167 4.37622 1.21094 4.10156 1.21094H0.585938C0.262299 1.21094 0 1.47324 0 1.79688C0 2.12051 0.262299 2.38281 0.585938 2.38281H3.63159C3.70575 2.71683 5.63599 11.403 5.74707 11.9028C5.12436 12.1735 4.6875 12.7943 4.6875 13.5156C4.6875 14.4849 5.47607 15.2734 6.44531 15.2734H17.0703C17.394 15.2734 17.6563 15.0111 17.6563 14.6875C17.6563 14.3639 17.394 14.1016 17.0703 14.1016H6.44531C6.12228 14.1016 5.85938 13.8387 5.85938 13.5156C5.85938 13.1931 6.12137 12.9306 6.44379 12.9298ZM18.6372 4.72656L16.6283 11.7578H6.91528L5.35278 4.72656H18.6372Z"/>
<path d="M5.85938 17.031C5.85938 18.0002 6.64795 18.7888 7.61719 18.7888C8.58643 18.7888 9.375 18.0002 9.375 17.031C9.375 16.0618 8.58643 15.2732 7.61719 15.2732C6.64795 15.2732 5.85938 16.0618 5.85938 17.031ZM7.61719 16.4451C7.94022 16.4451 8.20312 16.708 8.20312 17.031C8.20312 17.354 7.94022 17.6169 7.61719 17.6169C7.29416 17.6169 7.03125 17.354 7.03125 17.031C7.03125 16.708 7.29416 16.4451 7.61719 16.4451Z"/>
<path d="M14.1406 17.031C14.1406 18.0002 14.9292 18.7888 15.8984 18.7888C16.8677 18.7888 17.6562 18.0002 17.6562 17.031C17.6562 16.0618 16.8677 15.2732 15.8984 15.2732C14.9292 15.2732 14.1406 16.0618 14.1406 17.031ZM15.8984 16.4451C16.2215 16.4451 16.4844 16.708 16.4844 17.031C16.4844 17.354 16.2215 17.6169 15.8984 17.6169C15.5754 17.6169 15.3125 17.354 15.3125 17.031C15.3125 16.708 15.5754 16.4451 15.8984 16.4451Z"/>
</svg>
