<svg width="24" height="24" viewBox="0 0 24 24" fill="none" xmlns="http://www.w3.org/2000/svg">
<g clip-path="url(#clip0)">
<path d="M23.6655 6.2816C23.5395 5.2307 22.5491 4.22298 21.5129 4.08798C15.1942 3.30287 8.8047 3.30287 2.48805 4.08798C1.45097 4.22269 0.460603 5.2307 0.334623 6.2816C-0.11146 10.1331 -0.11146 13.8675 0.334623 17.7181C0.460603 18.769 1.45097 19.7777 2.48805 19.9118C8.8047 20.6969 15.1945 20.6969 21.5129 19.9118C22.5491 19.7779 23.5395 18.769 23.6655 17.7181C24.1116 13.8679 24.1116 10.1331 23.6655 6.2816ZM9.99992 16.0006V8.00036L16 12.0006L9.99992 16.0006Z" fill="#3C94FD"/>
</g>
<defs>
<clipPath id="clip0">
<rect width="24" height="24" fill="white"/>
</clipPath>
</defs>
</svg>
