<svg width="24" height="24" viewBox="0 0 24 24" fill="none" xmlns="http://www.w3.org/2000/svg">
<path d="M9.69598 13.2484C9.62398 13.2484 8.03998 13.2484 7.31998 13.2484C6.93598 13.2484 6.81598 13.1044 6.81598 12.7444C6.81598 11.7844 6.81598 10.8004 6.81598 9.84044C6.81598 9.45644 6.95998 9.33644 7.31998 9.33644H9.69598C9.69598 9.26444 9.69598 7.87244 9.69598 7.22444C9.69598 6.26444 9.86398 5.35244 10.344 4.51244C10.848 3.64844 11.568 3.07244 12.48 2.73644C13.08 2.52044 13.68 2.42444 14.328 2.42444H16.68C17.016 2.42444 17.16 2.56844 17.16 2.90444V5.64044C17.16 5.97644 17.016 6.12044 16.68 6.12044C16.032 6.12044 15.384 6.12044 14.736 6.14444C14.088 6.14444 13.752 6.45644 13.752 7.12844C13.728 7.84844 13.752 8.54444 13.752 9.28844H16.536C16.92 9.28844 17.064 9.43244 17.064 9.81644V12.7204C17.064 13.1044 16.944 13.2244 16.536 13.2244C15.672 13.2244 13.824 13.2244 13.752 13.2244V21.0484C13.752 21.4564 13.632 21.6004 13.2 21.6004C12.192 21.6004 11.208 21.6004 10.2 21.6004C9.83998 21.6004 9.69598 21.4564 9.69598 21.0964C9.69598 18.5764 9.69598 13.3204 9.69598 13.2484Z" fill="#3C94FD"/>
</svg>
