<svg width="24" height="24" viewBox="0 0 24 24" fill="none" xmlns="http://www.w3.org/2000/svg">
<g clip-path="url(#clip0)">
<path d="M0.023468 7.05607C0.0796928 5.78085 0.28591 4.90416 0.581316 4.14449C0.886063 3.33812 1.3549 2.61617 1.96916 2.01602C2.56931 1.40652 3.29602 0.932921 4.09305 0.632936C4.85711 0.337529 5.72923 0.131312 7.00444 0.0750879C8.28918 0.0141019 8.69704 0 11.9555 0C15.2139 0 15.6218 0.0141019 16.9018 0.0703262C18.177 0.126551 19.0537 0.332951 19.8132 0.628174C20.6197 0.932922 21.3417 1.40176 21.9418 2.01602C22.5513 2.61617 23.0247 3.34288 23.3249 4.13991C23.6203 4.90416 23.8265 5.77609 23.8827 7.0513C23.9437 8.33604 23.9578 8.7439 23.9578 12.0023C23.9578 15.2608 23.9437 15.6686 23.8875 16.9486C23.8313 18.2238 23.6249 19.1005 23.3295 19.8602C23.0247 20.6666 22.5513 21.3885 21.9418 21.9887C21.3417 22.5982 20.6149 23.0718 19.8179 23.3718C19.0537 23.6672 18.1817 23.8734 16.9063 23.9296C15.6265 23.986 15.2185 23.9999 11.9601 23.9999C8.70161 23.9999 8.29376 23.986 7.01378 23.9296C5.73857 23.8734 4.86188 23.6672 4.10239 23.3718C2.48946 22.7482 1.21425 21.4729 0.590656 19.8602C0.295433 19.096 0.0890331 18.2238 0.0328083 16.9486C-0.0234165 15.6686 -0.0375175 15.2608 -0.0375175 12.0023C-0.0375175 8.7439 -0.0327568 8.33604 0.023468 7.05607ZM2.18472 16.8549C2.23636 18.027 2.43324 18.6599 2.59733 19.0819C3.00061 20.1274 3.83043 20.9572 4.87598 21.3605C5.29794 21.5246 5.93545 21.7215 7.10297 21.7729C8.36885 21.8293 8.7485 21.8433 11.9507 21.8433C15.1529 21.8433 15.5374 21.8293 16.7987 21.7729C17.9708 21.7215 18.6037 21.5246 19.0256 21.3605C19.546 21.1682 20.0196 20.8634 20.404 20.4649C20.8025 20.0758 21.1072 19.6069 21.2995 19.0866C21.4636 18.6647 21.6605 18.027 21.712 16.8596C21.7684 15.5937 21.7823 15.2139 21.7823 12.0117C21.7823 8.80946 21.7684 8.42505 21.712 7.16394C21.6605 5.99183 21.4636 5.3589 21.2995 4.93694C21.1072 4.41645 20.8025 3.94303 20.3992 3.55843C20.0102 3.15992 19.5414 2.85517 19.0209 2.66306C18.5989 2.49896 17.9612 2.30209 16.7939 2.25044C15.528 2.19422 15.1482 2.18011 11.9461 2.18011C8.73916 2.18011 8.35951 2.19422 7.09821 2.25044C5.92611 2.30209 5.29317 2.49896 4.87122 2.66306C4.35091 2.85517 3.87731 3.15992 3.4929 3.55843C3.09438 3.94761 2.78963 4.41645 2.59733 4.93694C2.43324 5.3589 2.23636 5.99641 2.18472 7.16394C2.12849 8.42981 2.11439 8.80946 2.11439 12.0117C2.11439 15.2139 2.12849 15.589 2.18472 16.8549Z" fill="#3C94FD"/>
<path d="M11.9555 5.83667C15.3591 5.83667 18.1207 8.59807 18.1207 12.0019C18.1207 15.4058 15.3591 18.1672 11.9555 18.1672C8.5516 18.1672 5.7902 15.4058 5.7902 12.0019C5.7902 8.59807 8.5516 5.83667 11.9555 5.83667ZM11.9555 16.0012C14.1636 16.0012 15.9547 14.2103 15.9547 12.0019C15.9547 9.79362 14.1636 8.00268 11.9555 8.00268C9.74715 8.00268 7.95621 9.79362 7.95621 12.0019C7.95621 14.2103 9.74715 16.0012 11.9555 16.0012Z" fill="#3C94FD"/>
<path d="M4.10692 5.59336C4.10692 6.38819 4.75139 7.03267 5.54641 7.03267C6.34124 7.03267 6.98572 6.38819 6.98572 5.59336C6.98572 4.79834 6.34124 4.15405 5.54641 4.15405C4.75139 4.15405 4.10692 4.79834 4.10692 5.59336Z" fill="#3C94FD"/>
</g>
<defs>
<clipPath id="clip0">
<rect width="24" height="24" fill="white" transform="matrix(-1 0 0 1 24 0)"/>
</clipPath>
</defs>
</svg>
