<svg width="24" height="24" viewBox="0 0 24 24" fill="none" xmlns="http://www.w3.org/2000/svg">
<path d="M4.59043 15.0075C4.88102 16.242 5.34062 17.4289 5.95658 18.535C6.57292 19.6419 7.33994 20.6576 8.23643 21.5541L8.25144 21.5693V23.5312C8.25144 23.7902 8.46128 24 8.72019 24H17.1577C17.4166 24 17.6264 23.7902 17.6264 23.5312V21.5153C18.843 19.641 19.5014 17.4435 19.5014 15.1824V11.5312C19.5014 10.4974 18.6603 9.65625 17.6264 9.65625C17.2406 9.65625 16.8818 9.77344 16.5833 9.97412C16.3268 9.2439 15.6308 8.71875 14.8139 8.71875C14.4281 8.71875 14.0693 8.83594 13.7708 9.03662C13.5143 8.3064 12.8183 7.78125 12.0014 7.78125C11.6669 7.78125 11.3459 7.86877 11.0639 8.03229V3.75C11.0639 2.71417 10.225 1.875 9.18894 1.875C8.15513 1.875 7.31394 2.71619 7.31394 3.75V10.4991L6.03294 11.3531C4.84293 12.1465 4.26304 13.615 4.59043 15.0075ZM6.55314 12.1331L7.31394 11.6257V14.8125C7.31394 15.0714 7.52378 15.2812 7.78269 15.2812C8.0416 15.2812 8.25144 15.0714 8.25144 14.8125C8.25144 14.4708 8.25144 4.03271 8.25144 3.75C8.25144 3.23309 8.67204 2.8125 9.18894 2.8125C9.70677 2.8125 10.1264 3.23218 10.1264 3.75V12.9375C10.1264 13.1964 10.3363 13.4062 10.5952 13.4062C10.8541 13.4062 11.0639 13.1964 11.0639 12.9375V9.65625C11.0639 9.13843 11.4836 8.71875 12.0014 8.71875C12.5184 8.71875 12.9389 9.13934 12.9389 9.65625V12.9375C12.9389 13.1964 13.1488 13.4062 13.4077 13.4062C13.6666 13.4062 13.8764 13.1964 13.8764 12.9375V10.5938C13.8764 10.0768 14.297 9.65625 14.8139 9.65625C15.3309 9.65625 15.7514 10.0768 15.7514 10.5938V12.9375C15.7514 13.1964 15.9613 13.4062 16.2202 13.4062C16.4791 13.4062 16.6889 13.1964 16.6889 12.9375V11.5312C16.6889 11.0143 17.1095 10.5938 17.6264 10.5938C18.1434 10.5938 18.5639 11.0143 18.5639 11.5312V15.1824C18.5639 17.2815 17.9461 19.3473 16.7677 21.115C16.7164 21.1921 16.6889 21.2825 16.6889 21.375V23.0625H9.18894V21.375C9.18894 21.2507 9.1395 21.1315 9.05161 21.0436C8.95237 20.9306 7.78086 19.8843 6.77561 18.0789C6.20194 17.0484 5.77366 15.9428 5.50285 14.7929C5.26481 13.7796 5.68687 12.7106 6.55314 12.1331Z" fill="#4794EB"/>
<path d="M5.9082 4.21875C6.16711 4.21875 6.37695 4.00891 6.37695 3.75C6.37695 2.1991 7.63873 0.9375 9.18945 0.9375C10.7404 0.9375 12.002 2.1991 12.002 3.75C12.002 4.00891 12.2118 4.21875 12.4707 4.21875C12.7296 4.21875 12.9395 4.00891 12.9395 3.75C12.9395 1.68219 11.2573 0 9.18945 0C7.12164 0 5.43945 1.68219 5.43945 3.75C5.43945 4.00891 5.64929 4.21875 5.9082 4.21875Z" fill="#4794EB"/>
</svg>
